<?xml version="1.0" encoding="UTF-8" standalone="no"?>
<!-- Created with Inkscape (http://www.inkscape.org/) -->

<svg
   width="32"
   height="64"
   viewBox="0 0 8.4666665 16.933333"
   version="1.1"
   id="svg1"
   inkscape:version="1.3.2 (091e20e, 2023-11-25)"
   sodipodi:docname="bull1.svg"
   inkscape:export-filename="bull1.png"
   inkscape:export-xdpi="96"
   inkscape:export-ydpi="96"
   xmlns:inkscape="http://www.inkscape.org/namespaces/inkscape"
   xmlns:sodipodi="http://sodipodi.sourceforge.net/DTD/sodipodi-0.dtd"
   xmlns="http://www.w3.org/2000/svg"
   xmlns:svg="http://www.w3.org/2000/svg">
  <sodipodi:namedview
     id="namedview1"
     pagecolor="#ffffff"
     bordercolor="#000000"
     borderopacity="0.25"
     inkscape:showpageshadow="2"
     inkscape:pageopacity="0.0"
     inkscape:pagecheckerboard="0"
     inkscape:deskcolor="#d1d1d1"
     inkscape:document-units="mm"
     inkscape:zoom="9.5144352"
     inkscape:cx="6.5689659"
     inkscape:cy="19.654346"
     inkscape:window-width="1920"
     inkscape:window-height="971"
     inkscape:window-x="1440"
     inkscape:window-y="716"
     inkscape:window-maximized="0"
     inkscape:current-layer="layer1" />
  <defs
     id="defs1" />
  <g
     inkscape:label="Layer 1"
     inkscape:groupmode="layer"
     id="layer1">
    <path
       style="fill:#008000;stroke:none;stroke-width:0.110342;stroke-opacity:1"
       d="M 1.70215 3.26751 C 1.78679 3.2119 3.29348 2.98943 3.29348 2.98943 L 5.15567 3.18409 L 5.66354 3.96273 L 4.37694 4.37986 L 4.07221 6.21523 L 3.39505 7.04949 L 2.24388 6.1318 C 2.24388 6.1318 2.27773 3.96273 2.21002 3.96273 C 2.1423 3.96273 1.26199 3.8793 1.26199 3.8793 Z"
       id="path2" />
    <path
       style="fill:#00ff00;stroke:none;stroke-width:0.110342;stroke-opacity:1"
       d="M 1.91288 5.14459 L 1.64202 5.86762 L 2.38689 6.36817 L 2.99634 5.92324 C 2.99634 5.92324 2.69162 5.24193 2.59004 5.22802 C 2.48847 5.21412 1.91288 4.97774 1.91288 4.97774 Z"
       id="path9" />
    <path
       style="fill:#008000;stroke:none;stroke-width:0.110342;stroke-opacity:1"
       d="M 2.68403 5.18631 L 3.36119 5.77029 L 4.07221 5.26973 L 3.63206 4.71356 L 3.53048 5.24193 L 3.22576 5.21412 L 2.61632 4.65794 Z"
       id="path3" />
    <path
       style="fill:#008000;stroke:none;stroke-width:0.107604;stroke-opacity:1"
       d="M 4.87608 5.22416 C 4.87608 5.22416 5.04764 6.22437 5.1357 6.20281 C 5.22376 6.18124 5.98353 6.1223 5.93405 6.05307 C 5.88458 5.98384 5.7552 5.15124 5.7552 5.15124 Z"
       id="path5" />
    <path
       style="fill:#00ff00;stroke:none;stroke-width:0.107604;stroke-opacity:1"
       d="M 4.4746 4.01081 C 4.57503 4.00655 5.68302 3.94622 5.66663 4.01378 C 5.65025 4.08134 5.77846 5.32857 5.77846 5.32857 L 4.96192 5.41667 Z"
       id="path6" />
    <path
       style="fill:#00ff00;stroke:none;stroke-width:0.110342;stroke-opacity:1"
       d="M 1.46514 3.8793 C 1.43128 3.93492 1.07577 5.88152 1.19427 5.77029 C 1.31278 5.65905 1.76986 5.13069 1.76986 5.13069 L 2.17616 5.07507 L 2.27773 3.99054 Z"
       id="path7" />
    <path
       style="fill:#b3ff80;stroke:none;stroke-width:0.110342;stroke-opacity:1"
       d="M 2.16296 3.85169 C 2.22281 3.87136 2.45026 4.32362 2.45026 4.32362 L 3.00091 6.03436 L 4.00299 6.16217 L 4.46133 4.34328 C 4.46133 4.34328 4.90424 3.98934 4.84439 3.96967 C 4.78453 3.95001 3.74309 4.50059 3.74309 4.50059 L 3.02485 4.50059 Z"
       id="path22"
       sodipodi:nodetypes="cccccsccc" />
    <path
       style="fill:#008000;stroke:none;stroke-width:0.110342;stroke-opacity:1"
       d="M 1.83758 5.07507 L 1.19427 5.7981 L 1.66829 6.29865 L 2.58246 6.21523 L 2.27773 5.96495 C 2.27773 5.96495 1.83758 6.02057 1.83758 5.96495 C 1.83758 5.90933 1.82065 5.4922 1.87144 5.43659 C 1.92222 5.38097 2.27773 4.96384 2.27773 4.96384 Z"
       id="path8" />
    <path
       style="fill:#008000;stroke:none;stroke-width:0.110342;stroke-opacity:1"
       d="M 2.83587 5.49109 L 2.89154 5.96972 L 3.41465 5.99416 L 3.6178 5.30906 Z"
       id="path10"
       sodipodi:nodetypes="ccccc" />
    <path
       style="fill:#000080;stroke:none;stroke-width:0.110342;stroke-opacity:1"
       d="M 2.62793 4.57987 L 2.76337 5.52536 C 2.9778 5.52073 2.6371 5.55932 3.59771 5.52705 L 3.91454 4.57987 Z"
       id="path11"
       sodipodi:nodetypes="ccccc" />
    <path
       style="fill:#00ff00;stroke:none;stroke-width:0.0887686;stroke-opacity:1"
       d="M 2.11346 7.41399 C 2.09955 7.49069 2.2525 9.58336 2.2525 9.58336 C 2.2525 9.58336 2.8921 9.68197 2.91991 9.56145 C 2.94771 9.44093 3.33703 7.72078 3.33703 7.72078 C 3.33703 7.72078 3.00333 7.20583 2.94771 7.21678 C 2.8921 7.22774 2.11346 7.414 2.11346 7.414 Z"
       id="path13" />
    <path
       style="fill:#008000;stroke:none;stroke-width:0.0887686;stroke-opacity:1"
       d="M 2.11346 9.38615 L 2.08565 9.89014 L 2.86429 10.2407 L 3.25361 9.27658 L 2.5862 9.10128 Z"
       id="path14" />
    <path
       style="fill:#008000;stroke:none;stroke-width:0.0887686;stroke-opacity:1"
       d="M 2.00222 9.97779 L 2.36373 11.9938 L 2.72525 12.0376 L 3.33703 9.42997 L 2.61401 10.0435 Z"
       id="path15" />
    <path
       style="fill:#008000;stroke:none;stroke-width:0.0887686;stroke-opacity:1"
       d="M 2.19688 11.8404 C 2.18298 11.8952 1.55728 13.1113 1.55728 13.1113 L 2.16907 13.2647 L 3.08676 12.1691 L 2.91991 11.6432 Z"
       id="path16" />
    <path
       style="fill:#00ff00;stroke:none;stroke-width:0.0887686;stroke-opacity:1"
       d="M 3.30923 7.41399 L 4.36595 7.06339 L 4.8387 7.15104 L 5.45049 9.58336 L 4.58842 9.73675 L 4.14348 9.95588 Z"
       id="path17" />
    <path
       style="fill:#008000;stroke:none;stroke-width:0.107604;stroke-opacity:1"
       d="M 2.41441 6.32646 L 1.96364 7.27195 L 3.15498 7.46662 L 3.34817 8.0784 L 3.79895 7.96717 L 3.73455 7.35538 L 4.8615 7.16072 L 4.05654 6.24304 Z"
       id="path12" />
    <path
       style="fill:#008000;stroke:none;stroke-width:0.0887686;stroke-opacity:1"
       d="M 4.17129 9.84631 L 5.11679 9.58336 C 5.11679 9.58336 5.4922 9.51762 5.4783 9.56145 C 5.46439 9.60528 5.06117 10.5037 5.06117 10.5037 L 3.94882 10.2846 Z"
       id="path18" />
    <path
       style="fill:#008000;stroke:none;stroke-width:0.0887686;stroke-opacity:1"
       d="M 4.00444 10.2627 C 3.93492 10.2846 3.2258 10.9639 3.2258 10.9639 C 3.2258 10.9639 3.67074 11.3693 3.75416 11.3145 C 3.83759 11.2597 5.08898 10.5037 5.08898 10.5037 Z"
       id="path19" />
    <path
       style="fill:#008000;stroke:none;stroke-width:0.0887686;stroke-opacity:1"
       d="M 3.2258 11.0515 L 3.11457 11.5336 L 4.11568 12.2348 L 4.42157 11.8185 L 3.64293 11.1611 Z"
       id="path20" />
    <path
       style="fill:#445016;stroke:none;stroke-width:0.110342;stroke-opacity:1"
       d="M 1.73202 3.55674 L 2.01931 3.24212 L 3.59944 3.12414 L 5.03592 3.26178 L 5.56262 3.91068 L 4.86833 3.39943 L 3.40791 3.3601 L 2.16296 3.34044 Z"
       id="path21" />
    <path
       style="fill:#b3ff80;stroke:none;stroke-width:0.0887686;stroke-opacity:1"
       d="M 2.53522 7.48757 C 2.57454 7.53405 2.59421 8.94407 2.59421 8.94407 C 2.59421 8.94407 2.85967 9.19198 2.8695 9.16099 C 2.87933 9.13 3.20378 7.91367 3.16445 7.92142 C 3.12512 7.92916 2.84983 8.12285 2.84983 8.12285 Z"
       id="path23" />
    <path
       style="fill:#b3ff80;stroke:none;stroke-width:0.0887686;stroke-opacity:1"
       d="M 4.14764 9.34693 C 4.14764 9.34693 4.26562 9.69556 4.32461 9.67232 C 4.3836 9.64908 5.18981 9.45539 5.18981 9.45539 L 4.95385 8.8356 L 4.34427 9.11451 L 3.97066 8.89758 Z"
       id="path24" />
    <path
       style="fill:#b3ff80;stroke:none;stroke-width:0.107604;stroke-opacity:1"
       d="M 4.81269 4.16616 L 5.09449 5.22597 C 5.09449 5.22597 5.42817 5.34737 5.40889 5.28199 C 5.3896 5.21661 5.22697 4.0036 5.22697 4.0036 L 4.89656 4.20674 Z"
       id="path25" />
    <path
       style="fill:#b3ff80;stroke:none;stroke-width:0.110342;stroke-opacity:1"
       d="M 1.87567 4.08766 C 1.83975 4.18598 1.61231 5.20849 1.61231 5.20849 L 2.09114 4.93319 L 2.1869 4.02867 Z"
       id="path26" />
    <path
       style="fill:#b3ff80;stroke:none;stroke-width:0.110342;stroke-opacity:1"
       d="M 2.25873 5.12983 L 2.23478 5.50344 C 2.23478 5.50344 2.64179 5.77873 2.64179 5.7394 C 2.64179 5.70008 2.66573 5.20849 2.66573 5.20849 Z"
       id="path27" />
    <path
       style="fill:#44aa00;stroke:none;stroke-width:0.110342;stroke-opacity:1"
       d="M 2.92104 3.48998 C 2.98875 3.50389 3.66592 3.93492 3.66592 3.93492 C 3.66592 3.93492 4.41079 3.46217 4.37694 3.40656 C 4.34308 3.35094 4.4108 2.37764 4.34308 2.37764 C 4.27536 2.37764 3.73363 2.09955 3.66592 2.12736 C 3.5982 2.15517 2.85332 2.54449 2.85332 2.54449 C 2.85332 2.54449 2.81946 3.5595 2.92104 3.48998 Z"
       id="path1" />
    <path
       style="fill:#222b00;stroke:none;stroke-width:0.110342;stroke-opacity:1"
       d="M 3.00091 3.3601 L 3.02485 2.57355 L 3.79097 2.19994 L 4.24585 2.47524 L 3.6952 2.59322 L 3.24032 2.61288 Z"
       id="path28" />
    <path
       style="fill:#8a916f;stroke:none;stroke-width:0.110342;stroke-opacity:1"
       d="M 3.38397 2.80952 C 3.36003 2.84885 3.33608 3.24212 3.33608 3.24212 L 3.74309 3.65506 L 4.15009 3.26178 C 4.15009 3.26178 4.29374 2.50473 4.24585 2.53423 C 4.19797 2.56372 3.74309 2.90784 3.74309 2.90784 Z"
       id="path29" />
    <path
       style="fill:#454837;stroke:none;stroke-width:0.110342;stroke-opacity:1"
       d="M 3.93462 2.9275 L 3.88673 3.41909 L 4.12615 3.1438 L 4.2698 2.57355 Z"
       id="path30" />
    <path
       style="fill:#454837;stroke:none;stroke-width:0.0887686;stroke-opacity:1"
       d="M 2.06329 7.28613 C 2.05346 7.32487 2.08295 9.34693 2.08295 9.34693 L 2.20093 7.33262 C 2.20093 7.33262 2.8695 7.34037 2.81051 7.33262 C 2.75152 7.32487 2.06329 7.28613 2.06329 7.28613 Z"
       id="path31" />
    <path
       style="fill:#454837;stroke:none;stroke-width:0.0887686;stroke-opacity:1"
       d="M 3.85268 7.28613 C 3.93134 7.26289 4.67855 7.14668 4.67855 7.14668 C 4.67855 7.14668 5.43561 9.56385 5.40611 9.53286 C 5.37662 9.50188 4.5999 7.31712 4.5999 7.31712 Z"
       id="path32" />
    <path
       style="fill:#454837;stroke:none;stroke-width:0.0887686;stroke-opacity:1"
       d="M 2.12228 9.98221 L 2.29925 10.5865 L 2.45656 10.1836 L 2.75152 10.3076 C 2.75152 10.3076 3.07597 10.0907 3.04647 10.1217 C 3.01698 10.1527 2.98748 10.8344 3.00714 10.7879 C 3.02681 10.7415 3.22344 9.62583 3.22344 9.62583 L 2.77118 9.99771 L 2.10261 9.74979 Z"
       id="path33" />
    <path
       style="fill:#454837;stroke:none;stroke-width:0.0887686;stroke-opacity:1"
       d="M 4.32461 9.99771 C 4.29511 10.0519 4.20663 10.3696 4.20663 10.3696 L 4.63923 10.6175 C 4.63923 10.6175 3.71504 11.338 3.79369 11.2993 C 3.87234 11.2605 5.05216 10.478 5.05216 10.478 L 5.22914 10.1062 C 5.22914 10.1062 5.05216 10.2844 5.01284 10.3076 C 4.97351 10.3308 4.32461 9.99771 4.32461 9.99771 Z"
       id="path34" />
    <path
       style="fill:#454837;stroke:none;stroke-width:0.0887686;stroke-opacity:1"
       d="M 2.39757 11.8726 L 2.35824 12.105 L 2.75152 12.2289 C 2.75152 12.2289 2.1911 13.2671 2.24026 13.2361 C 2.28942 13.2051 3.12513 12.167 3.12513 12.167 L 2.92849 11.5937 L 2.59421 11.9036"
       id="path35" />
    <path
       style="fill:#454837;stroke:none;stroke-width:0.0887686;stroke-opacity:1"
       d="M 3.38075 11.0668 L 3.65604 11.4232 C 3.65604 11.4232 4.44259 11.8726 4.40326 11.8416 C 4.36394 11.8106 3.85268 11.2528 3.85268 11.2528 Z"
       id="path36" />
    <path
       style="fill:#454837;stroke:none;stroke-width:0.104702;stroke-opacity:1"
       d="M 2.7085 6.27251 L 2.91924 6.52 C 2.91924 6.52 4.85308 7.19713 4.80261 7.14463 C 4.75215 7.09213 4.05156 6.28016 4.05156 6.28016 L 3.35236 6.48432 Z"
       id="path37"
       sodipodi:nodetypes="ccsccc" />
    <path
       style="fill:#454837;stroke:none;stroke-width:0.107604;stroke-opacity:1"
       d="M 5.04726 3.93465 C 5.26615 3.91854 5.69734 3.98703 5.69734 3.98703 C 5.69734 3.98703 5.76221 5.50597 5.73566 5.43634 C 5.70911 5.36671 5.54291 4.10475 5.54291 4.10475 Z"
       id="path38" />
    <path
       style="fill:#454837;stroke:none;stroke-width:0.110342;stroke-opacity:1"
       d="M 1.3729 3.95001 C 1.3729 3.95001 1.14546 5.71974 1.18137 5.66075 C 1.21728 5.60176 1.56443 4.009 1.56443 4.009 L 2.40237 3.98934 Z"
       id="path39" />
    <path
       style="fill:#454837;stroke:none;stroke-width:0.0955185;stroke-opacity:1"
       d="M 3.11224 7.61629 L 3.33992 7.91069 L 3.61313 7.86421 C 3.61313 7.86421 3.7042 7.18244 3.68144 7.22893 C 3.65867 7.27541 3.47653 7.67827 3.47653 7.67827 C 3.47653 7.67827 3.32853 7.75575 3.31715 7.72476 C 3.30577 7.69377 2.94148 7.19794 2.95287 7.22893 C 2.96425 7.25992 3.11224 7.61629 3.11224 7.61629 Z"
       id="path40" />
    <path
       style="fill:#454837;stroke:none;stroke-width:0.0887686;stroke-opacity:1"
       d="M 3.3021 8.04537 C 3.28243 8.09961 3.04647 9.17649 3.04647 9.17649 L 3.20378 9.61034 C 3.20378 9.61034 3.22344 9.05253 3.22344 9.02154 C 3.22344 8.99055 3.3021 8.04537 3.3021 8.04537 Z"
       id="path41" />
    <path
       style="fill:#454837;stroke:none;stroke-width:0.0887686;stroke-opacity:1"
       d="M 3.49874 7.99889 C 3.49874 7.99889 4.23612 9.92798 4.22629 9.87375 C 4.21646 9.81952 3.59705 7.81295 3.59705 7.81295 Z"
       id="path42" />
    <path
       style="fill:#00ff00;stroke:none;stroke-width:0.107604;stroke-opacity:1"
       d="M 3.16062 5.80991 C 3.51481 5.89333 5.50277 6.17927 5.50277 6.17927 L 5.13065 5.48097 L 3.54701 5.42059 Z"
       id="path4"
       sodipodi:nodetypes="ccccc" />
  </g>
</svg>
