<?xml version="1.0" encoding="UTF-8" standalone="no"?>
<!-- Created with Inkscape (http://www.inkscape.org/) -->

<svg
   width="32"
   height="64"
   viewBox="0 0 8.4666665 16.933333"
   version="1.1"
   id="svg1"
   inkscape:version="1.3.2 (091e20e, 2023-11-25)"
   sodipodi:docname="bull0.svg"
   inkscape:export-filename="bull0.png"
   inkscape:export-xdpi="96"
   inkscape:export-ydpi="96"
   xmlns:inkscape="http://www.inkscape.org/namespaces/inkscape"
   xmlns:sodipodi="http://sodipodi.sourceforge.net/DTD/sodipodi-0.dtd"
   xmlns="http://www.w3.org/2000/svg"
   xmlns:svg="http://www.w3.org/2000/svg">
  <sodipodi:namedview
     id="namedview1"
     pagecolor="#ffffff"
     bordercolor="#000000"
     borderopacity="0.25"
     inkscape:showpageshadow="2"
     inkscape:pageopacity="0.0"
     inkscape:pagecheckerboard="0"
     inkscape:deskcolor="#d1d1d1"
     inkscape:document-units="mm"
     inkscape:zoom="9.514435"
     inkscape:cx="12.664966"
     inkscape:cy="31.741244"
     inkscape:window-width="1920"
     inkscape:window-height="999"
     inkscape:window-x="1440"
     inkscape:window-y="716"
     inkscape:window-maximized="0"
     inkscape:current-layer="layer1" />
  <defs
     id="defs1" />
  <g
     inkscape:label="Layer 1"
     inkscape:groupmode="layer"
     id="layer1"
     style="display:inline">
    <path
       style="fill:#00ff00;stroke:none;stroke-width:0.1;stroke-dasharray:none;stroke-opacity:1"
       d="M 2.08565 6.7853 C 2.09607 6.78704 3.33703 7.23024 3.33703 7.23024 C 3.33703 7.23024 2.5862 10.5499 2.5862 10.5395 C 2.5862 10.529 1.66852 10.1501 1.66852 10.1501 L 1.75194 7.31367 Z"
       id="path14" />
    <path
       style="fill:#00ff00;stroke:none;stroke-width:0.1;stroke-dasharray:none;stroke-opacity:1"
       d="M 3.75417 7.16072 C 3.75417 7.16072 4.72051 6.78182 4.72746 6.7853 C 4.73441 6.78878 5.22802 9.89987 5.22802 9.89987 C 5.22802 9.89987 4.39724 10.2979 4.39376 10.2892 C 4.39029 10.2805 3.67074 7.86984 3.67074 7.86984 Z"
       id="path18"
       sodipodi:nodetypes="cccccc" />
    <path
       style="fill:#000000;stroke-width:0.264583"
       d="M -268.055 -362.441 Z"
       id="path1" />
    <path
       style="fill:#008000;stroke:none;stroke-width:0.1;stroke-dasharray:none;stroke-opacity:1"
       d="M 1.47386 2.47497 C 1.48255 2.46976 3.00333 2.33592 3.00333 2.33592 L 5.39487 2.50278 L 6.04681 4.03364 C 6.04681 4.03364 4.51195 4.28427 4.505 4.28253 C 4.49804 4.28079 4.42853 6.59064 4.42157 6.59064 C 4.41461 6.59064 2.12041 5.62951 2.11346 5.61734 C 2.1065 5.60518 1.83537 3.42046 1.83537 3.42046 L 1.05673 3.03114 Z"
       id="path3"
       sodipodi:nodetypes="cccccscccc" />
    <path
       style="fill:#00ff00;stroke:none;stroke-width:0.1;stroke-dasharray:none;stroke-opacity:1"
       d="M 1.25139 3.14237 C 1.24618 3.15801 1.21663 4.80741 1.22358 4.81089 L 2.19688 4.33814 C 2.19688 4.33814 2.20731 3.19799 2.19688 3.19799 C 2.18646 3.19799 1.25139 3.14237 1.25139 3.14237 Z"
       id="path4"
       sodipodi:nodetypes="cccsc" />
    <path
       style="fill:#008000;stroke:none;stroke-width:0.1;stroke-dasharray:none;stroke-opacity:1"
       d="M 1.05731 4.4182 C 1.05383 4.43037 1.53138 5.47233 1.54355 5.46538 C 1.55571 5.45843 2.36895 4.56756 2.36373 4.56061 C 2.35851 4.55366 2.15169 4.14696 2.14126 4.14348 C 2.13083 4.14001 1.05731 4.4182 1.05731 4.4182 Z"
       id="path5"
       sodipodi:nodetypes="cccsc" />
    <path
       style="fill:#008000;stroke:none;stroke-width:0.1;stroke-dasharray:none;stroke-opacity:1"
       d="M 2.22469 5.83981 C 2.23338 5.83634 4.47719 5.97885 4.47719 5.97885 L 4.64404 6.84092 L 3.75416 7.20243 C 3.75416 7.20243 3.73331 7.87157 3.72636 7.86984 C 3.71941 7.8681 3.00333 7.78641 3.00333 7.78641 L 2.66963 7.03558 L 2.03003 6.86873 Z"
       id="path13" />
    <path
       style="fill:#00ff00;stroke:none;stroke-width:0.1;stroke-dasharray:none;stroke-opacity:1"
       d="M 1.6129 5.20021 L 2.28031 4.64404 L 3.78197 5.70077 L 3.30923 6.50722 Z"
       id="path6" />
    <path
       style="fill:#008000;stroke:none;stroke-width:0.1;stroke-dasharray:none;stroke-opacity:1"
       d="M 3.69855 5.83981 C 3.69334 5.85371 3.50042 6.7488 3.50389 6.75749 C 3.50737 6.76618 4.05311 7.08946 4.06006 7.0912 C 4.06701 7.09294 4.97774 6.70188 4.97774 6.70188 L 3.97663 6.67407 L 4.1991 5.61734 L 3.83759 6.28475 Z"
       id="path7" />
    <path
       style="fill:#00ff00;stroke:none;stroke-width:0.1;stroke-dasharray:none;stroke-opacity:1"
       d="M 4.12744 3.48644 C 4.1396 3.48297 5.28864 3.18869 5.28864 3.18869 C 5.28864 3.18869 6.69336 5.16484 6.68641 5.1631 C 6.67946 5.16136 5.79653 5.32995 5.79653 5.32995 Z"
       id="path8"
       sodipodi:nodetypes="ccccc" />
    <path
       style="fill:#008000;stroke:none;stroke-width:0.1;stroke-dasharray:none;stroke-opacity:1"
       d="M 5.59372 5.00916 C 5.60763 5.00568 6.81196 4.8145 6.81196 4.8145 L 6.81731 6.0937 L 5.51031 5.62095 Z"
       id="path9"
       sodipodi:nodetypes="ccccc" />
    <path
       style="fill:#00ff00;stroke:none;stroke-width:0.1;stroke-dasharray:none;stroke-opacity:1"
       d="M 5.70554 5.44456 C 5.71771 5.44283 7.01255 6.02854 7.01255 6.02854 L 4.95471 6.5291 L 4.98252 6.05635 L 4.64882 5.66703 Z"
       id="path10" />
    <path
       style="fill:#008000;stroke:none;stroke-width:0.1;stroke-dasharray:none;stroke-opacity:1"
       d="M 4.95668 5.69484 C 4.94799 5.69484 4.23366 6.00073 4.23366 6.00073 C 4.23366 6.00073 4.30318 6.95492 4.31708 6.94623 C 4.33099 6.93754 5.26257 6.65076 5.26257 6.64033 C 5.26257 6.6299 4.95668 5.69484 4.95668 5.69484 Z"
       id="path11" />
    <path
       style="fill:#000080;stroke:none;stroke-width:0.1;stroke-dasharray:none;stroke-opacity:1"
       d="M 2.84939 5.69204 L 3.12748 6.55411 L 4.85161 5.91451 L 4.7668 5.42268 L 3.49304 5.47502 Z"
       id="path12"
       sodipodi:nodetypes="cccccc" />
    <path
       style="fill:#008000;stroke:none;stroke-width:0.1;stroke-dasharray:none;stroke-opacity:1"
       d="M 1.58509 10.1223 C 1.59726 10.1205 2.33592 10.2058 2.33592 10.2058 L 2.72524 10.5951 C 2.72524 10.5951 2.67659 11.0678 2.66963 11.0678 C 2.66268 11.0678 2.28031 11.2625 2.28031 11.2625 L 1.75194 11.0956 Z"
       id="path15" />
    <path
       style="fill:#008000;stroke:none;stroke-width:0.1;stroke-dasharray:none;stroke-opacity:1"
       d="M 1.69633 11.1234 C 1.70328 11.1234 2.80867 11.0678 2.80867 11.0678 L 2.8921 13.1813 C 2.8921 13.1813 2.36199 13.2474 2.36373 13.2369 C 2.36547 13.2264 2.33592 12.4861 2.33592 12.4861 C 2.33592 12.4861 1.69285 12.6043 1.69633 12.5973 C 1.69981 12.5904 1.69633 11.1234 1.69633 11.1234 Z"
       id="path16" />
    <path
       style="fill:#008000;stroke:none;stroke-width:0.1;stroke-dasharray:none;stroke-opacity:1"
       d="M 1.75194 12.4583 L 2.33592 12.4861 L 2.44716 13.2925 L 1.44605 13.8765 L 0.889876 13.8765 Z"
       id="path17" />
    <path
       style="fill:#008000;stroke:none;stroke-width:0.1;stroke-dasharray:none;stroke-opacity:1"
       d="M 4.36595 10.178 C 4.37464 10.1762 5.42268 9.83208 5.42268 9.84425 C 5.42268 9.85642 5.42268 10.901 5.42268 10.901 L 4.75527 11.2903 Z"
       id="path19" />
    <path
       style="fill:#008000;stroke:none;stroke-width:0.1;stroke-dasharray:none;stroke-opacity:1"
       d="M 4.61623 11.04 C 4.62318 11.0661 4.80742 13.5827 4.79699 13.5567 C 4.80047 13.5445 5.02467 12.9188 5.03336 12.9171 C 5.04205 12.9154 5.61734 12.7642 5.61734 12.7642 C 5.61734 12.7642 6.14049 13.7497 6.14571 13.7375 C 6.15092 13.7253 5.45049 10.7063 5.45049 10.7063 Z"
       id="path20"
       sodipodi:nodetypes="ccccccc" />
    <path
       style="fill:#008000;stroke:none;stroke-width:0.1;stroke-dasharray:none;stroke-opacity:1"
       d="M 4.97774 12.9032 C 4.97078 12.9101 4.78308 13.5428 4.78308 13.5428 L 5.11679 14.5717 C 5.11679 14.5717 5.97885 14.6672 5.97885 14.6551 C 5.97885 14.6429 6.14571 13.7375 6.14571 13.7375 L 5.58953 12.6529 Z"
       id="path21" />
    <path
       style="fill:#008000;stroke:none;stroke-width:0.1;stroke-dasharray:none;stroke-opacity:1"
       d="M 3.17298 0.835656 L 2.64462 1.41963 L 2.86708 2.69883 C 2.86708 2.69883 3.38849 3.23414 3.39545 3.22719 C 3.4024 3.22024 4.17409 2.64321 4.17409 2.64321 L 3.95162 1.14155 Z"
       id="path2" />
    <path
       style="fill:#ac9d93;stroke:none;stroke-width:0.1;stroke-dasharray:none;stroke-opacity:1"
       d="M 2.97832 1.75334 L 3.45107 2.03142 L 3.95162 1.53087 L 4.00724 2.22608 C 4.00724 2.22608 3.45281 2.87263 3.45107 2.86568 C 3.44933 2.85873 3.06174 2.42074 3.06174 2.42074 Z"
       id="path22" />
    <path
       style="fill:#225500;stroke-width:0.1"
       d="M 3.06737 4.26544 C 3.06737 4.26544 3.31824 4.24735 3.34282 4.24735 C 3.3674 4.24735 4.28668 4.09004 4.28668 4.09004 L 4.22769 5.36818 L 3.12652 5.80078 L 2.5956 5.32885 Z"
       id="path23"
       sodipodi:nodetypes="csccccc" />
    <path
       style="fill:#225500;stroke-width:0.1"
       d="M 2.94955 2.49729 C 2.9348 2.52679 2.45796 2.94955 2.45796 2.94955 L 3.59845 3.57879 L 4.73894 2.92989 C 4.73894 2.92989 4.38991 2.5022 4.36533 2.51695 C 4.34075 2.5317 3.44114 3.06753 3.44114 3.06753 Z"
       id="path24" />
    <path
       style="fill:#44aa00;stroke-width:0.1"
       d="M 1.41578 2.8119 L 1.65175 2.53661 L 2.85123 2.43829 L 1.80906 2.67426 Z"
       id="path25" />
    <path
       style="fill:#44aa00;stroke-width:0.1"
       d="M 2.76205 1.42155 L 3.17498 0.933328 C 3.17498 0.933328 3.25224 1.73544 3.23258 1.74036 C 3.21291 1.74527 2.88003 1.5568 2.88003 1.5568 L 2.88003 2.30542 Z"
       id="path26"
       sodipodi:nodetypes="ccsccc" />
    <path
       style="fill:#5aa02c;stroke-width:0.1"
       d="M 2.55628 7.82614 C 2.55628 7.85563 2.28099 10.1268 2.28099 10.1268 C 2.28099 10.1268 2.58086 10.2447 2.57594 10.2251 C 2.57103 10.2054 3.06753 7.92446 3.06753 7.92446 L 2.85123 7.78681 L 2.67426 7.17724 Z"
       id="path27" />
    <path
       style="fill:#5aa02c;stroke-width:0.1"
       d="M 4.30634 7.13791 C 4.30634 7.13791 4.70453 6.94127 4.69962 6.96094 C 4.6947 6.9806 5.13222 9.67452 5.13222 9.67452 L 4.98881 9.99054 L 4.72166 10.1079 Z"
       id="path28"
       sodipodi:nodetypes="cccccc" />
    <path
       style="fill:#5aa02c;stroke-width:0.1"
       d="M 5.30919 3.50013 C 5.32394 3.52963 6.16189 4.8756 6.16189 4.8756 L 6.54602 4.93459 L 5.31215 3.10942 Z"
       id="path29"
       sodipodi:nodetypes="ccccc" />
    <path
       style="fill:#5aa02c;stroke-width:0.1"
       d="M 1.86228 3.13426 C 1.85245 3.18833 1.86805 4.20802 1.86805 4.20802 L 2.22199 4.12937 L 2.18267 3.18551 Z"
       id="path30"
       sodipodi:nodetypes="ccccc" />
    <path
       style="fill:#5aa02c;stroke-width:0.1"
       d="M 2.10401 4.79793 L 2.8119 5.78112 L 3.00854 5.64347 L 2.30065 4.64062 Z"
       id="path31" />
    <path
       style="fill:#1a1a1a;stroke-width:0.1"
       d="M 4.20802 4.01139 C 4.20802 4.01139 4.55214 4.11953 4.54231 4.14903 C 4.53247 4.17853 4.46365 5.36818 4.46365 5.36818 C 4.46365 5.36818 3.96714 5.4665 3.97206 5.44684 C 3.97697 5.42718 4.20802 4.01139 4.20802 4.01139 Z"
       id="path32" />
    <path
       style="fill:#1a1a1a;stroke-width:0.1"
       d="M 4.79793 2.45796 C 4.81759 2.45304 5.36341 2.52608 5.36341 2.52608 L 5.97537 3.9965 L 5.28953 3.12652 Z"
       id="path33"
       sodipodi:nodetypes="ccccc" />
    <path
       style="fill:#1a1a1a;stroke-width:0.1"
       d="M 4.67995 6.86262 C 4.67995 6.88228 5.00272 10.0126 5.00272 10.0126 C 5.00272 10.0126 5.437 9.9449 5.42717 9.91049 C 5.41734 9.87608 4.85693 6.74464 4.85693 6.74464 Z"
       id="path34"
       sodipodi:nodetypes="ccccc" />
    <path
       style="fill:#1a1a1a;stroke-width:0.1"
       d="M 2.47762 10.2841 C 2.47762 10.2841 2.88564 11.2034 2.89056 11.169 C 2.89547 11.1346 3.24942 7.73765 3.22484 7.72782 C 3.20026 7.71799 2.79716 7.11824 2.79224 7.13791 C 2.78733 7.15757 2.47762 10.2841 2.47762 10.2841 Z"
       id="path35" />
    <path
       style="fill:#1a1a1a;stroke-width:0.1"
       d="M 5.42717 10.5987 C 5.40751 10.6331 5.36818 12.8207 5.36818 12.8207 C 5.36818 12.8207 6.21372 13.7499 6.19405 13.7056 C 6.17439 13.6614 5.42717 10.5987 5.42717 10.5987 Z"
       id="path36" />
    <path
       style="fill:#1a1a1a;stroke-width:0.1"
       d="M 2.35964 10.4217 C 2.35473 10.4758 2.3793 12.5258 2.3793 12.5258 L 2.63493 13.155 L 2.61527 12.4078 L 2.8119 10.9723 Z"
       id="path37" />
    <path
       style="fill:#1a1a1a;stroke-width:0.1"
       d="M 6.48901 4.93558 C 6.48409 4.96016 6.47918 5.72213 6.52834 5.74179 C 6.5775 5.76145 7.01009 6.04658 7.00026 5.99742 C 6.99043 5.94826 6.82906 4.76099 6.82906 4.76099 Z"
       id="path38"
       sodipodi:nodetypes="csccc" />
    <path
       style="fill:#1a1a1a;stroke-width:0.1"
       d="M 5.15188 6.15473 C 5.11017 6.17931 5.22084 6.57173 5.24542 6.5619 C 5.27 6.55207 7.07892 6.05641 7.05926 6.05641 C 7.0396 6.05641 6.19405 5.85977 6.19405 5.85977 Z"
       id="path39"
       sodipodi:nodetypes="csscc" />
    <path
       style="fill:#1a1a1a;stroke-width:0.1"
       d="M 3.57879 6.68565 C 3.60337 6.69548 3.96223 7.10841 3.99172 7.09858 C 4.02122 7.08875 5.28953 6.548 5.28953 6.548 L 4.09004 6.80363 Z"
       id="path40" />
    <path
       style="fill:#1a1a1a;stroke-width:0.1"
       d="M 4.07038 6.37103 C 4.07038 6.37103 4.38499 6.45459 4.40466 6.44968 C 4.42432 6.44477 5.01423 6.17439 5.01423 6.17439 L 5.17154 6.29237 L 4.87659 5.74179 Z"
       id="path41" />
    <path
       style="fill:#1a1a1a;stroke-width:0.1"
       d="M 2.12368 3.22484 C 2.12368 3.26417 2.24166 4.32601 2.24166 4.32601 C 2.24166 4.32601 3.06262 5.66314 3.04787 5.64347 C 3.03312 5.6238 2.20233 3.38215 2.20233 3.38215 Z"
       id="path42" />
    <path
       style="fill:#1a1a1a;stroke-width:0.1"
       d="M 3.36249 0.904529 C 3.39199 0.919277 3.66617 1.58025 3.66617 1.58025 C 3.66617 1.58025 3.49031 2.03027 3.5198 2.00569 C 3.54929 1.98111 3.97206 1.55343 3.97206 1.57309 C 3.97206 1.59276 4.01139 2.28099 4.01139 2.28099 L 3.59845 2.83157 L 4.09004 2.39897 L 4.24735 2.61527 C 4.24735 2.61527 3.60337 3.02329 3.63778 3.00854 C 3.67219 2.99379 4.385 2.47762 4.385 2.47762 L 4.03105 1.16016 Z"
       id="path43"
       sodipodi:nodetypes="ccsscccccccc" />
    <path
       style="fill:#1a1a1a;stroke-width:0.1"
       d="M 3.53946 7.27556 C 3.53946 7.29522 3.73118 7.90971 3.7361 7.86547 C 3.74101 7.82123 3.74101 7.20674 3.77542 7.1969 C 3.80984 7.18707 5.23053 6.49884 5.21087 6.50867 C 5.19121 6.51851 3.53946 7.27556 3.53946 7.27556 Z"
       id="path44" />
    <path
       style="fill:#6c5d53;stroke-width:0.1"
       d="M 3.60122 2.04393 C 3.60122 2.04393 3.90016 1.67547 3.89321 1.72413 C 3.88626 1.7728 3.92102 2.21079 3.92102 2.21079 L 3.51779 2.71134 L 3.58731 2.2664 L 3.79588 2.03003 Z"
       id="path45" />
  </g>
</svg>
