<?xml version="1.0" encoding="UTF-8" standalone="no"?>
<!-- Created with Inkscape (http://www.inkscape.org/) -->

<svg
   width="32"
   height="64"
   viewBox="0 0 8.4666665 16.933333"
   version="1.1"
   id="svg1"
   sodipodi:docname="cuco0.svg"
   inkscape:version="1.3.2 (091e20e, 2023-11-25)"
   inkscape:export-filename="cuco0.png"
   inkscape:export-xdpi="96"
   inkscape:export-ydpi="96"
   xmlns:inkscape="http://www.inkscape.org/namespaces/inkscape"
   xmlns:sodipodi="http://sodipodi.sourceforge.net/DTD/sodipodi-0.dtd"
   xmlns="http://www.w3.org/2000/svg"
   xmlns:svg="http://www.w3.org/2000/svg">
  <sodipodi:namedview
     id="namedview1"
     pagecolor="#ffffff"
     bordercolor="#000000"
     borderopacity="0.25"
     inkscape:showpageshadow="2"
     inkscape:pageopacity="0.0"
     inkscape:pagecheckerboard="0"
     inkscape:deskcolor="#d1d1d1"
     inkscape:document-units="mm"
     inkscape:zoom="6.7277216"
     inkscape:cx="18.951438"
     inkscape:cy="30.025023"
     inkscape:window-width="1920"
     inkscape:window-height="971"
     inkscape:window-x="1440"
     inkscape:window-y="716"
     inkscape:window-maximized="0"
     inkscape:current-layer="layer1" />
  <defs
     id="defs1" />
  <g
     inkscape:label="Layer 1"
     inkscape:groupmode="layer"
     id="layer1">
    <path
       style="fill:#e9c6af;stroke:none;stroke-width:0.11725;stroke-opacity:1"
       d="M 3.3062002,2.7953909 3.6711361,2.6813311 3.8788772,2.3514981 3.6587888,1.9194726 3.7158487,0.59079011 4.5309912,0.39515593 4.9874712,0.88424156 4.7592311,2.1558639 4.5880511,2.4167096 5.1281225,2.9996564 c 0,0 -1.2166395,0.7864928 -1.2492453,0.6560698 C 3.8462717,3.5253034 3.3062002,2.7953909 3.3062002,2.7953909 Z"
       id="path11"
       sodipodi:nodetypes="ccccccccccsc" />
    <path
       style="fill:#280b0b;stroke:none;stroke-width:0.11725;stroke-opacity:1"
       d="m 3.0637347,14.839483 c -0.1304228,0.130422 -0.1630285,0.521691 -0.1630285,0.521691 l -0.9781711,0.619509 0.032606,0.326056 1.2390168,-0.130422 0.2608454,-0.260847 0.3260573,0.09782 0.4238741,-0.163029 -0.2934513,-0.782536 z"
       id="path14"
       sodipodi:nodetypes="cccccccccc" />
    <path
       style="fill:#501616;stroke:none;stroke-width:0.11725;stroke-opacity:1"
       d="m 2.8354947,12.883141 0.22824,2.151976 0.8151425,0.163029 c 0,0 0,-2.445428 -0.1304229,-2.380217 -0.1304225,0.06521 -0.9129596,0.06521 -0.9129596,0.06521 z"
       id="path12" />
    <path
       style="fill:#280b0b;stroke:none;stroke-width:0.11725;stroke-opacity:1"
       d="m 4.69402,14.953603 c 0,0.06521 -0.1467258,1.010777 -0.1467258,1.010777 l 0.4238741,0.277148 0.1630284,-0.211937 0.048909,0.260846 1.0270795,0.635811 0.7173255,-0.228241 -1.304228,-1.043381 -0.2119369,-0.733628 z"
       id="path15" />
    <path
       style="fill:#501616;stroke:none;stroke-width:0.11725;stroke-opacity:1"
       d="M 4.5962026,12.687506 5.6069794,12.524478 5.443951,15.002511 4.5962026,15.230752 Z"
       id="path13" />
    <path
       style="fill:#782121;stroke:none;stroke-width:0.11725;stroke-opacity:1"
       d="M 2.4116207,2.9220979 C 2.1833807,3.0525207 1.6535381,4.4301116 1.7839609,4.3322946 1.9143836,4.2344775 2.9659176,4.5034747 2.9659176,4.5034747 V 8.0248905 L 2.3790149,13.241804 c 0,0 2.184582,1.402044 2.184582,1.010776 0,-0.391269 -0.5216913,-6.1950839 -0.5216913,-6.1950839 L 4.2130858,4.6094429 c 0,0 0.9700194,-1.6710422 0.8069911,-1.6710422 -0.1630285,0 -1.2390167,0.4890857 -1.2390167,0.4890857 L 3.3897916,2.7753722 Z"
       id="path1"
       sodipodi:nodetypes="cscccsccsccc" />
    <path
       style="fill:#a02c2c;stroke:none;stroke-width:0.11725;stroke-opacity:1"
       d="M 4.0093,3.4600921 5.0526827,2.9057951 5.8352193,3.0036122 6.4791821,3.8106034 5.2809225,4.2100233 5.0852882,7.4379876 5.9004307,13.176592 c 0,0 -1.6302849,1.206411 -1.6628908,1.043382 -0.032605,-0.163028 -0.2934513,-6.4233237 -0.2934513,-6.5537462 0,-0.075211 0.201094,-1.1886838 0.1919139,-2.11102 C 4.1292636,4.8781468 3.8870293,4.9028945 3.8870293,4.9028945 Z"
       id="path2"
       sodipodi:nodetypes="cccccccssscc" />
    <path
       style="fill:#280b0b;stroke:none;stroke-width:0.11725;stroke-opacity:1"
       d="M 2.9659176,7.1608393 C 3.9440887,7.519502 3.984846,7.6091677 3.984846,7.6091677 L 5.1015912,7.1852934 5.1831052,7.6662278 3.9766945,8.2205246 2.9659176,7.7314392 Z"
       id="path3"
       sodipodi:nodetypes="ccccccc" />
    <path
       style="fill:#e9c6af;stroke:none;stroke-width:0.11725;stroke-opacity:1"
       d="m 2.0855636,4.2426289 c 0,0 -0.5523191,1.5477821 -0.6175304,1.5477821 -0.065211,0 0.6175304,0.310743 0.6175304,0.310743 l 0.880354,-1.6302852 z"
       id="path4"
       sodipodi:nodetypes="csccc" />
    <path
       style="fill:#d38d5f;stroke:none;stroke-width:0.11725;stroke-opacity:1"
       d="m 1.4986609,5.7750968 0.1304229,1.8585251 c 0,0 0.5869026,0.032606 0.5869026,-0.1304228 0,-0.1630285 -0.048909,-1.5650737 -0.048909,-1.5650737 z"
       id="path5"
       sodipodi:nodetypes="ccscc" />
    <path
       style="fill:#501616;stroke:none;stroke-width:0.11725;stroke-opacity:1"
       d="M 1.7269009,7.6010163 1.3356324,8.2205246 2.0611094,8.4976729 1.8084151,8.1390105 2.1507749,8.090102 2.3790149,8.4813702 2.3464092,7.4379876 Z"
       id="path6"
       sodipodi:nodetypes="cccccccc" />
    <path
       style="fill:#e9c6af;stroke:none;stroke-width:0.11725;stroke-opacity:1"
       d="M 5.3624368,4.1529631 6.4873336,6.2967883 7.1720532,6.1989709 6.1286707,3.769846 Z"
       id="path8"
       sodipodi:nodetypes="ccccc" />
    <path
       style="fill:#deaa87;stroke:none;stroke-width:0.11725;stroke-opacity:1"
       d="m 6.4873336,6.2641824 c 0,0 0.7097534,-0.197612 0.6771475,-0.067188 C 7.1318755,6.3274161 6.5199393,8.6851558 6.4873334,8.5547332 6.4547278,8.4243103 5.998248,8.187919 5.998248,8.187919 Z"
       id="path9"
       sodipodi:nodetypes="csscc" />
    <path
       style="fill:#501616;stroke:none;stroke-width:0.11725;stroke-opacity:1"
       d="M 5.998248,8.1553131 5.6721909,8.8726389 5.8678252,8.9378536 6.096065,8.6444022 5.9004307,9.3943337 6.2264879,9.7203905 6.4873336,8.9704597 6.650362,8.9052451 6.5525447,8.4813713 Z"
       id="path10"
       sodipodi:nodetypes="cccccccccc" />
    <path
       style="fill:#782121;stroke:none;stroke-width:0.11725;stroke-opacity:1"
       d="M 3.6676941,1.6662573 C 3.7138052,1.4818115 3.6336902,0.38560601 3.6336902,0.38560601 L 4.6020304,0.08588167 c 0,0 0.6916715,0.46111427 0.5994484,0.55333717 C 5.1092556,0.73144163 4.8731043,2.0255988 4.8269928,1.7950416 4.7808812,1.5644845 4.8640341,0.72073315 4.7256996,0.7899003 4.5873654,0.85906744 4.27925,0.91588743 4.27925,0.91588743 L 3.7990356,0.71142301 Z"
       id="path16"
       sodipodi:nodetypes="cccsssccc" />
    <path
       style="fill:#784421;stroke:none;stroke-width:0.11725;stroke-opacity:1"
       d="M 3.7962385,0.92915313 3.9475627,1.1107111 4.1870269,1.2156116 4.1178598,1.6536702 4.0486926,1.3539459 3.7540828,1.2060617 Z"
       id="path17"
       sodipodi:nodetypes="ccccccc" />
    <path
       style="fill:#502d16;stroke:none;stroke-width:0.11725;stroke-opacity:1"
       d="m 4.3903328,1.2428631 0.297167,-0.1222714 -0.00783,0.08654 -0.130507,0.1344673 z"
       id="path18"
       sodipodi:nodetypes="ccccc" />
    <path
       style="fill:#502d16;stroke:none;stroke-width:0.11725;stroke-opacity:1"
       d="M 4.0025811,1.9072831 4.1693256,2.0796216 4.5789739,1.7689488 4.2081778,1.9397802 Z"
       id="path19"
       sodipodi:nodetypes="ccccc" />
    <path
       style="fill:#d38d5f;stroke:none;stroke-width:0.11725;stroke-opacity:1"
       d="M 3.9359372,2.3759524 3.7729088,2.6694037 4.0419057,2.9547036 4.1641771,2.8161293 4.490234,2.8731892 4.4494766,2.5797376 c 0,0 0.2200887,-0.366814 0.1874828,-0.3342085 C 4.6043544,2.2781353 4.1804797,2.506375 4.1804797,2.506375 Z"
       id="path20"
       sodipodi:nodetypes="ccccccscc" />
    <path
       style="fill:#c83737;stroke:none;stroke-width:0.11725;stroke-opacity:1"
       d="m 4.4037972,5.1496651 c 0.046111,0.011526 0.4034751,0.046111 0.4034751,0.046111 l 0.253613,-0.4380583 c 0,0 -0.1152794,2.3977943 -0.1383345,2.3401551 C 4.8994948,7.0402339 4.196296,7.4898199 4.196296,7.4898199 L 4.230879,5.0113305 Z"
       id="path21"
       sodipodi:nodetypes="cccsccc" />
    <path
       style="fill:#c83737;stroke:none;stroke-width:0.11725;stroke-opacity:1"
       d="m 4.7035216,3.212985 c 0.069167,0.011526 1.0720905,-0.057639 1.049035,-0.034583 -0.023056,0.023056 0.2881964,0.5418092 0.3458355,0.5187537 0.057639,-0.023056 0.2536128,0.034583 0.2536128,0.034583 L 5.8101957,3.0170114 5.0608851,2.9709001 Z"
       id="path22" />
    <path
       style="fill:#1a1a1a;stroke:none;stroke-width:0.11725;stroke-opacity:1"
       d="M 1.8215573,4.2677838 2.4094781,3.0054837 3.3201788,2.9017329 c 0,0 -0.7723666,0.230557 -0.80695,0.2766685 -0.034583,0.046111 -0.6916715,1.0893824 -0.6916715,1.0893824 z"
       id="path23"
       sodipodi:nodetypes="cccsc" />
    <path
       style="fill:#1a1a1a;stroke:none;stroke-width:0.11725;stroke-opacity:1"
       d="m 3.1011495,4.7692457 c 0.011526,0.046111 0,2.247932 0,2.247932 L 3.2394837,5.1266091 3.8504601,5.0804979 3.2164281,4.976747 Z"
       id="path24" />
    <path
       style="fill:#1a1a1a;stroke:none;stroke-width:0.11725;stroke-opacity:1"
       d="M 1.4987774,5.7836969 C 1.5103053,5.7260578 2.0694062,4.2389644 2.0694062,4.2389644 L 2.968579,4.4637575 2.167393,4.5617445 Z"
       id="path25"
       sodipodi:nodetypes="ccccc" />
    <path
       style="fill:#1a1a1a;stroke:none;stroke-width:0.11725;stroke-opacity:1"
       d="m 1.5160692,5.8125166 c 0,0.057639 0.2593768,1.538969 0.2593768,1.538969 0,0 0.5648649,0.1268066 0.5187535,0.1268066 -0.046111,0 -0.4956978,0.1037501 -0.5418092,0.1613898 C 1.7062793,7.697321 1.614056,7.8932948 1.614056,7.8932948 Z"
       id="path26"
       sodipodi:nodetypes="ccsscc" />
    <path
       style="fill:#1a1a1a;stroke:none;stroke-width:0.11725;stroke-opacity:1"
       d="m 5.406721,4.1697972 c 0.011526,0.057639 1.0663267,2.0980698 1.0663267,2.0980698 0,0 0.732019,-0.054757 0.6859075,-0.08934 C 7.1128437,6.1439427 6.6027361,6.0546015 6.5681525,5.9969624 6.5335689,5.9393232 5.406721,4.1697972 5.406721,4.1697972 Z"
       id="path27"
       sodipodi:nodetypes="ccssc" />
    <path
       style="fill:#1a1a1a;stroke:none;stroke-width:0.11725;stroke-opacity:1"
       d="M 6.4788114,6.264985 6.0292249,8.1353797 6.7093687,6.3600898 7.1704829,6.1929359 Z"
       id="path28"
       sodipodi:nodetypes="ccccc" />
    <path
       style="fill:#1a1a1a;stroke:none;stroke-width:0.11725;stroke-opacity:1"
       d="M 3.8462714,13.665677 C 3.8136659,13.404831 3.9440887,8.3835531 3.9440887,8.3835531 L 4.3027515,14.122157 Z"
       id="path29" />
    <path
       style="fill:#1a1a1a;stroke:none;stroke-width:0.11725;stroke-opacity:1"
       d="M 3.0423175,7.7152767 C 2.9771062,7.8456995 2.5094377,13.046168 2.5094377,13.046168 l 0.7324699,-5.0358013 0.7999981,0.258247 z"
       id="path30"
       sodipodi:nodetypes="ccccc" />
    <path
       style="fill:#00ffff;stroke:none;stroke-width:0.11725;stroke-opacity:1"
       d="M 1.7583512,8.1187537 4.7807255,12.099018 5.2511862,11.676759 2.1943288,8.0768312 Z"
       id="path7"
       sodipodi:nodetypes="ccccc" />
  </g>
</svg>
