<?xml version="1.0" encoding="UTF-8" standalone="no"?>
<!-- Created with Inkscape (http://www.inkscape.org/) -->

<svg
   width="64"
   height="128"
   viewBox="0 0 16.933333 33.866666"
   version="1.1"
   id="svg1"
   inkscape:version="1.3.2 (091e20e, 2023-11-25)"
   sodipodi:docname="drawing-1.svg"
   inkscape:export-filename="drawing-1.png"
   inkscape:export-xdpi="96"
   inkscape:export-ydpi="96"
   xmlns:inkscape="http://www.inkscape.org/namespaces/inkscape"
   xmlns:sodipodi="http://sodipodi.sourceforge.net/DTD/sodipodi-0.dtd"
   xmlns="http://www.w3.org/2000/svg"
   xmlns:svg="http://www.w3.org/2000/svg">
  <sodipodi:namedview
     id="namedview1"
     pagecolor="#ffffff"
     bordercolor="#000000"
     borderopacity="0.25"
     inkscape:showpageshadow="2"
     inkscape:pageopacity="0.0"
     inkscape:pagecheckerboard="0"
     inkscape:deskcolor="#d1d1d1"
     inkscape:document-units="mm"
     inkscape:zoom="6.7277216"
     inkscape:cx="33.815311"
     inkscape:cy="60.421644"
     inkscape:window-width="1920"
     inkscape:window-height="1080"
     inkscape:window-x="1440"
     inkscape:window-y="691"
     inkscape:window-maximized="0"
     inkscape:current-layer="layer1" />
  <defs
     id="defs1" />
  <g
     inkscape:label="Layer 1"
     inkscape:groupmode="layer"
     id="layer1">
    <path
       style="fill:#225500;stroke-width:0.0264583;stroke-miterlimit:1"
       d="m 4.5152344,15.580154 c -0.5356458,0.442188 -0.5561724,1.082845 -0.5561724,1.724135 0,0.01854 -0.018539,0.05562 0,0.05562 0.018539,0 -0.00829,-0.03904 0,-0.05562 0.011724,-0.02345 0.037078,-0.03708 0.055617,-0.05562 0.078696,-0.0787 0.1891895,-0.155796 0.2780863,-0.222469 0.1998575,-0.149893 0.5778209,-0.16735 0.7786415,0 0.1092904,0.09108 0.1858624,0.278652 0.2780861,0.389321 0.2754326,0.330519 0.451586,0.638382 0.5561724,1.056728 0.067143,0.268572 0.026432,-0.0028 0.1112345,0.166851 0.00829,0.01658 -0.018539,0.05562 0,0.05562 0,-0.07416 -0.018539,-0.05562 0.055617,-0.05562 0.1920094,0 -0.2078897,0.0059 0.2224691,-0.05562 0.1284692,-0.01835 0.259547,0 0.3893206,0 0.1112345,0 0.2224691,0 0.3337033,0 0.018539,0 0.055617,0.01854 0.055617,0 0,-0.01854 -0.042508,0.01311 -0.055617,0 -0.033123,-0.03312 -0.0098,-0.274888 0,-0.333703 0.1213784,-0.72827 0.1700438,-0.786791 0.8898761,-1.056728 0.3620643,-0.135774 1.0628055,-0.286343 1.4460484,-0.222469 0.081781,0.01363 0.1420349,0.09113 0.2224688,0.111234 0.035971,0.009 0.078071,-0.01658 0.1112345,0 0.016581,0.0083 -0.01311,0.04251 0,0.05562 0.026218,0.02622 0.085016,-0.02622 0.1112346,0 0.01311,0.01311 -0.01311,0.04251 0,0.05562 0.01071,0.01071 0.1668521,0.120869 0.1668521,0 0,-0.53102 -0.1387161,-1.347899 -0.3337039,-1.835369 -0.044259,-0.110648 -0.082599,-0.219161 -0.1112346,-0.333703 -0.016875,-0.0675 0.012263,-0.222469 0,-0.222469 -0.018539,0 0.01311,0.04251 0,0.05562 -0.016616,0.01662 -0.2153086,-0.0018 -0.2224688,0 -0.040217,0.01005 -0.070449,0.0482 -0.1112345,0.05562 -0.1651707,0.03003 -0.3346289,0.03009 -0.5005552,0.05562 -0.4129894,0.06354 -0.8104071,0.176561 -1.2235793,0.222469 -0.3371758,0.03746 -1.0141842,0.05344 -1.3348139,0 -0.4882179,-0.08137 0.085016,-0.02046 -0.2780864,-0.111234 -0.2394188,-0.05986 -0.4819351,-0.162197 -0.7230239,-0.222469 -0.030872,-0.0077 -0.4102219,-0.03472 -0.4449382,0 -0.078394,0.07839 -0.1561399,0.658754 -0.1668515,0.723024 z"
       id="path17" />
    <path
       style="fill:#225500;stroke-width:0.0264583;stroke-miterlimit:1"
       d="M 5.5061072,6.8965383 C 4.7708663,6.4370126 5.3462501,6.7237397 4.7830829,6.5628347 4.7432232,6.5514471 4.7128866,6.5130801 4.6718484,6.5072175 4.1024481,6.4258745 3.3509442,6.6080197 2.8920966,6.9521553 2.5137946,7.2358821 2.3645226,7.6878994 2.1134553,8.0645004 1.8942901,8.3932481 1.6832991,8.6875619 1.5572828,9.0656107 c -0.116575,0.3497252 -0.1737607,0.64668 -0.055617,1.0011103 0.011725,0.03518 -0.026218,0.08502 0,0.111235 0.075779,0.07578 0.053534,-0.05458 0.055617,-0.05562 0.049746,-0.02487 0.1112345,0 0.1668517,0 0.6020224,0 1.0749497,-0.2132219 1.7241345,-0.1668515 0.3682225,0.026302 0.8137139,0.1161945 1.1679621,0.2224695 0.095626,0.02869 0.1798606,0.09337 0.2780864,0.111234 0.3184773,0.0579 1.1747844,0.0366 1.4460481,-0.166852 0.033164,-0.02487 0.026305,-0.08192 0.055617,-0.111234 0.1513425,-0.1513424 0.1199708,0.08502 0.2224691,-0.2224691 0.017587,-0.052763 -0.010909,-0.1123145 0,-0.1668518 0.00813,-0.04065 0.045563,-0.071018 0.055617,-0.1112345 0.04218,-0.1687198 -0.025056,-0.3477448 -0.055617,-0.5005551 -0.010909,-0.054537 0.017587,-0.1140886 0,-0.1668518 C 6.4963386,8.4768014 6.231732,8.1809364 6.0622796,7.8420314 6.036062,7.7895949 6.036824,7.7254506 6.0066623,7.6751796 5.8398105,7.3970935 5.951045,7.6751796 5.8398105,7.508328 5.7149907,7.321098 5.6216036,7.0890325 5.5061072,6.8965383 Z"
       id="path2" />
    <path
       style="fill:#338000;stroke-width:0.0264583;stroke-miterlimit:1"
       d="M 4.8943175,7.3414762 C 5.6652694,7.0603509 6.4881942,6.9548731 7.2858589,6.8409211 7.6021331,6.795739 7.9161687,6.6814887 8.231352,6.618452 8.5797775,6.548767 9.0015199,6.625182 9.3436968,6.674069 9.5027831,6.696797 9.6351179,6.691307 9.7886349,6.729686 9.8892988,6.696164 9.8920733,6.819783 9.9554865,6.8409206 c 0.035176,0.011724 0.07606,-0.011726 0.1112345,0 0.08784,0.02928 0.136814,0.1623935 0.166852,0.2224688 0.04259,0.085182 0.09911,0.043494 0.166852,0.1112345 0.02931,0.029313 0.0263,0.081922 0.05562,0.1112345 0.01311,0.01311 0.04251,-0.01311 0.05562,0 0.157462,0.1574623 0.237781,0.5214975 0.278086,0.7230243 0.04791,0.2395251 -0.08529,0.433887 -0.111234,0.6674069 -0.02268,0.2040858 -0.02194,0.4097293 -0.05562,0.6117897 -0.0068,0.040891 -0.04975,0.070196 -0.05562,0.1112343 -0.07545,0.5281451 0.09512,0.028583 -0.05562,0.5561724 -0.06723,0.23531 -0.143938,0.487432 -0.222469,0.723024 -0.112468,0.337405 -0.3030566,0.656054 -0.3893205,1.00111 -0.062844,0.251374 -0.1700938,0.516765 -0.2224691,0.778641 -0.054122,0.270613 -0.044378,0.566833 -0.1112345,0.834259 -0.010054,0.04022 -0.047487,0.07058 -0.055617,0.111235 -0.038809,0.194046 -0.048469,0.423493 -0.1112345,0.611789 -0.029481,0.08844 -0.1245989,0.137964 -0.1668516,0.222469 -0.00829,0.01658 0.01311,0.04251 0,0.05562 -0.040353,0.04035 -0.4936998,0.156439 -0.5561724,0.166851 -0.233798,0.03897 -0.4873363,-0.02619 -0.7230242,0 -0.2289895,0.02544 -0.4872807,0.102766 -0.7230242,0.05562 -0.1116873,0.01276 -0.1812311,-0.08702 -0.2780864,-0.111235 -0.089928,-0.02248 -0.1871908,0.01818 -0.278086,0 -0.3355166,-0.0671 0.045095,-0.02646 -0.1668518,-0.111234 -0.062456,-0.02498 -0.362588,-0.146265 -0.4449379,-0.166852 -0.035971,-0.009 -0.076059,0.01172 -0.1112346,0 -0.024873,-0.0083 -0.037078,-0.03708 -0.055617,-0.05562 -0.055616,-0.01854 -0.109363,-0.04412 -0.1668503,-0.05562 C 5.4909912,13.968028 5.1625991,13.97303 5.005552,13.737459 4.6247004,13.166182 4.729948,12.096247 4.6718484,11.457152 4.6464775,11.17808 4.5915815,10.901602 4.5606139,10.622893 c -0.031979,-0.287815 0.056769,-0.606028 0,-0.8898753 -0.00813,-0.04065 -0.048802,-0.070344 -0.055617,-0.1112346 C 4.471975,9.4236536 4.4744084,9.2102251 4.4493796,9.0099935 4.3799799,8.4547966 4.254869,7.8970485 4.3937623,7.3414762 4.407981,7.2846008 4.4231612,7.2270609 4.4493796,7.1746244 4.4819964,7.1093903 4.7648235,6.9895132 4.8387002,7.0633899 c 0.01311,0.01311 -0.01311,0.042508 0,0.055617 0.01311,0.01311 0.051121,-0.017986 0.055617,0 0.017986,0.071942 0,0.1483128 3e-7,0.2224693 z"
       id="path3" />
    <path
       style="fill:#338000;stroke-width:0.0264583;stroke-miterlimit:1"
       d="m 2.1134552,9.8442521 c -0.037078,0.092695 -0.089577,0.1806279 -0.1112345,0.2780859 -0.091243,0.410596 0.053889,0.87778 0.1112345,1.279197 0.070865,0.496056 0,1.053196 0,1.557283 0,0.124732 -0.03911,0.327608 0,0.444937 0.053919,0.161757 0.2685008,0.345212 0.444938,0.389321 0.1100201,0.02751 0.3670691,-0.08898 0.4449378,-0.166851 0.047266,-0.04727 0.063969,-0.119587 0.1112346,-0.166852 0.06793,-0.06793 0.4742754,-0.250787 0.5561724,-0.278086 0.1014775,-0.03383 0.4542422,-0.03246 0.5005551,-0.05562 0.027589,-0.0138 -0.1008388,-0.761489 -0.1112342,-0.834258 -0.013369,-0.09358 -0.042249,-0.184505 -0.055617,-0.278086 -0.04213,-0.294912 0.077382,-1.458136 0,-1.612901 C 3.9683622,10.328266 3.8974668,10.182216 3.8375898,10.122338 3.7281801,10.012928 3.5170553,9.993172 3.3926519,9.8998693 3.3507028,9.8684075 3.3301034,9.8081092 3.2814174,9.7886348 3.2643703,9.7818165 2.6334163,9.6709317 2.6140104,9.6774003 2.4368669,9.7364481 2.3020937,9.7687966 2.1134552,9.8442521 Z"
       id="path6" />
    <path
       style="fill:#225500;stroke-width:0.0264583;stroke-miterlimit:1"
       d="m 2.6696277,13.793076 c -0.018539,-0.0927 -0.067342,-0.184285 -0.055617,-0.278086 0.026204,-0.209634 0.6416799,-0.526199 0.8342588,-0.61179 0.2379067,-0.105736 0.3296793,-0.102139 0.5561724,-0.166852 0.103129,-0.02947 0.274887,-0.149379 0.3893206,-0.111234 0.1833975,0.06113 0.5141812,0.640155 0.3893209,0.889876 -0.031498,0.063 -0.3350014,0.446235 -0.3893209,0.500555 -0.1221528,0.122153 -0.3598381,0.138039 -0.5005551,0.222469 -0.044964,0.02698 -0.064334,0.08778 -0.1112346,0.111234 -0.1941997,0.0971 -0.1912419,0.0044 -0.3337033,0.111235 -0.115456,0.08659 -0.3223062,0.311594 -0.5005552,0.222469 C 2.6361912,14.52719 2.6696277,14.074593 2.6696277,13.793076 Z"
       id="path7" />
    <path
       style="fill:#44aa00;stroke-width:0.0264583;stroke-miterlimit:1"
       d="m 3.0033312,14.238014 c 0.1668518,0.20393 0.3014387,0.439223 0.5005551,0.61179 0.194935,0.168944 1.1395485,0.222469 1.3904312,0.222469 0.193888,0 0.4195154,-0.02404 0.6117897,0 0.5528511,0.06911 -0.055099,0.05562 0.3893206,0.05562 0.095355,0 0.3052754,-0.04202 0.3893206,0 0.1340607,0.06703 0.9577594,0.383188 1.0567278,0.333704 0.066327,-0.03316 -0.017986,-0.150527 0,-0.222469 0.010054,-0.04022 0.045563,-0.07102 0.055617,-0.111235 0.01978,-0.07912 -0.090329,-0.702118 -0.1112345,-0.723024 -0.01311,-0.01311 -0.039036,0.0083 -0.055617,0 -0.095915,-0.04796 -0.1732561,-0.187529 -0.2780863,-0.222472 -0.1149448,-0.03832 -0.2706561,-0.02595 -0.3893207,-0.05562 -0.040217,-0.01005 -0.070585,-0.04749 -0.1112345,-0.05562 -0.2667775,-0.05336 -0.5284854,0.01384 -0.7786415,-0.111235 -0.165354,-0.08268 -0.3018226,-0.17075 -0.4449379,-0.278086 -0.1398317,-0.104874 -0.2431031,-0.0625 -0.3893206,-0.111234 -0.063414,-0.02114 -0.104789,-0.08641 -0.1668518,-0.111235 -0.034426,-0.01377 -0.074876,0.0073 -0.1112345,0 -0.3281759,-0.06563 -0.6294133,-0.07081 -0.945493,0.05562 -0.154109,0.06164 -0.6974925,0.159535 -0.7230243,0.389321 -0.012949,0.116534 0.074156,0.222469 0.1112346,0.333703 z"
       id="path8" />
    <path
       style="fill:#338000;stroke-width:0.0264583;stroke-miterlimit:1"
       d="m 6.7891569,14.3105 c -0.3928872,-0.216751 -1.0907789,0.299652 -0.7230242,0.667407 0.029313,0.02931 0.078071,0.03074 0.1112345,0.05562 0.1453465,0.109009 0.2439744,0.28031 0.3893209,0.38932 0.3026852,0.227014 0.6635792,0.193704 1.0011103,0.278086 0.1144905,0.02862 0.2192128,0.08261 0.3337033,0.111235 0.089928,0.02248 0.1871909,-0.01818 0.2780864,0 0.1315892,0.02632 0.2606863,0.06836 0.3893203,0.111234 0.03518,0.01173 0.08502,-0.02622 0.111235,0 0.01311,0.01311 -0.01311,0.04251 0,0.05562 5.29e-4,5.29e-4 0.236469,0.04175 0.278086,0.05562 0.07826,0.02609 0.04757,-0.02378 0.111234,-0.05562 0.152893,-0.07645 0.696028,0.168476 0.444939,-0.333704 -0.04239,-0.08477 -0.152707,-0.120343 -0.222469,-0.166851 -0.11715,-0.0781 -0.193261,-0.166292 -0.333704,-0.22247 -0.07097,-0.02839 -0.1541,-0.02143 -0.222469,-0.05562 -0.02345,-0.01172 -0.03074,-0.04733 -0.05562,-0.05562 -0.12796,-0.04265 -0.474795,-0.02986 -0.5561726,-0.111234 -0.1121775,-0.112178 0.3337036,-0.8242 0.3337036,-0.889876 0,-0.119917 -0.3863644,-0.16833 -0.5005554,-0.111235 -0.061462,0.03073 -0.1649833,0.128528 -0.2224688,0.166852 -0.1434378,0.09563 -0.091346,0.29595 -0.2780863,0.389321 -0.02345,0.01173 -0.029399,0.05562 -0.055617,0.05562 -0.018539,0 0.01311,-0.04251 0,-0.05562 -0.03417,-0.03417 -0.1296062,-0.03674 -0.1668518,-0.111235 -0.023783,-0.04757 -0.031834,-0.119286 -0.055617,-0.166852 -0.02345,-0.0469 -0.094653,-0.06149 -0.1112343,-0.111234 -0.011726,-0.03518 0.011724,-0.07606 0,-0.111235 -0.084267,-0.252801 -0.24444,0.138354 -0.2780863,0.222469 z"
       id="path9" />
    <path
       style="fill:#1c241c;stroke-width:0.0264583;stroke-miterlimit:1"
       d="m 10.045321,7.9600134 c -0.07416,0.3707815 -0.1910676,0.7355265 -0.2224686,1.1123448 -0.0051,0.060986 0.136958,0.4042672 0.2780856,0.3337036 0.06804,-0.034023 0.07059,-0.1126591 0.111234,-0.1668518 0.192895,-0.2571927 0.722506,-0.6117897 1.056728,-0.6117897 0.28709,0 0.572947,0.2179087 0.778641,0.3893206 0.05436,0.045302 0.256772,0.3337036 0.333704,0.3337036 0.06242,0 0.01135,-0.6220002 0,-0.6674069 C 12.348515,8.5521008 12.336975,8.4109007 12.27001,8.2937167 11.942707,7.7209359 11.037106,7.7120668 10.490258,7.8487788 c -0.07416,0.018539 -0.148312,0.037078 -0.222469,0.055617 -0.07416,0.018539 -0.205887,-0.019002 -0.222468,0.055617 -0.09194,0.4137302 0.09559,0.4371152 0.333703,0.5561724"
       id="path10" />
    <path
       style="fill:#338000;stroke-width:0.0264583;stroke-miterlimit:1"
       d="m 10.434641,9.4616788 c 0.03708,-0.074156 0.185391,-0.1853906 0.111235,-0.2224688 -0.07416,-0.037078 -0.111235,0.1395598 -0.111235,0.2224688 0,0.5101233 0.126941,0.3638283 0.166852,0.7230242 0.01024,0.09213 -0.0071,0.185664 0,0.278086 0.01146,0.149027 0.04415,0.295912 0.05562,0.444938 0.01422,0.184845 -0.02299,0.372213 0,0.556173 0.0073,0.05817 0.04733,0.108815 0.05562,0.166851 0.05687,0.39813 -0.07661,0.04825 0.05562,0.444938 0.174354,0.523063 0.500555,1.236903 0.500555,1.779752 0,0.01854 -0.01311,-0.04251 0,-0.05562 0.01311,-0.01311 0.04251,0.01311 0.05562,0 0.02931,-0.02931 0.02631,-0.08192 0.05562,-0.111235 0.139855,-0.139854 0.467619,-0.364347 0.667407,-0.38932 0.50801,-0.0635 1.031127,0.287798 1.334814,0.667407 0.0259,0.03237 0.02631,0.08192 0.05562,0.111234 0.01311,0.01311 0.0059,-0.03803 0,-0.05562 -0.01311,-0.03933 -0.03708,-0.07416 -0.05562,-0.111235 -0.01854,-0.05562 -0.03951,-0.110481 -0.05562,-0.166851 -0.108507,-0.379775 -0.27655,-0.736444 -0.389321,-1.112345 -0.08134,-0.271128 -0.141256,-0.608323 -0.166852,-0.889876 -0.01678,-0.184629 0.02622,-0.372645 0,-0.556172 -0.03454,-0.24179 -0.139551,-0.477325 -0.166851,-0.723025 -0.0277,-0.249319 0.0053,-0.5351073 -0.05562,-0.7786411 -0.02421,-0.096855 -0.08702,-0.1812311 -0.111234,-0.2780861 -0.01349,-0.053957 0.01349,-0.1128951 0,-0.1668518 -0.09288,-0.3715147 -1.013777,-0.6096786 -1.334814,-0.5561724 -0.0722,0.012033 -0.434889,0.1618271 -0.444938,0.1668515 -0.05979,0.029893 -0.133688,0.053198 -0.166852,0.1112346 -0.07016,0.1227809 -0.05562,0.3624299 -0.05562,0.5005551 z"
       id="path11" />
    <path
       style="fill:#225500;stroke-width:0.0264583;stroke-miterlimit:1"
       d="m 10.990814,13.855441 c 0.444937,-0.241008 0.866004,-0.53257 1.334814,-0.723024 0.617445,-0.250837 1.359153,0.702213 1.446048,1.223579 0.05346,0.320754 0.02437,0.569936 -0.05562,0.889876 -0.06791,0.271627 -0.237993,0.468652 -0.500556,0.556173 -0.175539,0.05851 -0.366284,0.142882 -0.556172,0.111234 -0.999839,-0.16664 -0.137106,-0.272922 -0.389321,-0.945493 -0.02347,-0.06259 -0.07807,-0.108815 -0.111234,-0.166852 -0.418151,-0.731763 -0.472907,-0.597965 -1.167962,-0.945493 z"
       id="path12" />
    <path
       style="fill:#44aa00;stroke-width:0.0264583;stroke-miterlimit:1"
       d="m 11.985562,13.682246 c 0.188879,0.167059 0.428071,0.2905 0.566645,0.501167 0.101881,0.154889 0.08703,0.360628 0.120205,0.543027 0.03361,0.184799 0.100227,0.676592 -0.169551,0.778058 -0.0388,0.01459 -0.08547,-0.0099 -0.124276,0.0047 -0.187738,0.07061 -0.336362,0.188788 -0.538304,0.244478 -0.256333,0.07069 -0.533813,0.06408 -0.791575,0.129653 -0.101633,0.02585 -0.190296,0.09875 -0.294478,0.110755 -0.05824,0.0067 -0.116692,-0.02495 -0.17493,-0.01824 -0.176829,0.02038 -0.357018,0.139601 -0.543028,0.120204 -0.3223176,-0.03361 0.05294,-0.386154 0.08241,-0.451166 0.02421,-0.05339 0.005,-0.117824 0.01824,-0.174929 0.01679,-0.07224 0.08417,-0.128863 0.09186,-0.202618 0.0044,-0.04185 -0.154801,-0.361948 -0.06483,-0.395789 0.01735,-0.0065 0.0333,0.02949 0.05066,0.02297 0.03471,-0.01305 0.01445,-0.0817 0.04593,-0.101309 0.04451,-0.02773 0.100036,-0.03255 0.14724,-0.05538 0.258914,-0.125199 0.566176,-0.272864 0.805093,-0.428855 0.104136,-0.06799 0.187446,-0.164325 0.289756,-0.23503 0.07626,-0.0527 0.171834,-0.07533 0.243824,-0.133721 0.09106,-0.07386 0.127121,-0.223236 0.239102,-0.257997 0.1289,-0.04002 0.267009,0.03963 0.400511,0.05945"
       id="path13" />
    <path
       style="fill:#338000;stroke-width:0.0264583;stroke-miterlimit:1"
       d="m 10.212172,15.134637 c -0.11935,-0.490523 -0.9030516,-0.837171 -1.0567266,-0.222468 -0.08674,0.346973 0.194221,0.610911 0.333703,0.889875 0.03708,0.07416 0.08502,0.143815 0.111235,0.222469 0.01759,0.05276 -0.03933,0.127525 0,0.166852 0.01311,0.01311 0.04251,-0.01311 0.05562,0 0.02622,0.02622 -0.01658,0.07807 0,0.111234 0.115732,0.231466 -0.0038,-0.05946 0.111234,0.05562 0.02931,0.02931 0.02112,0.08824 0.05562,0.111234 0.03085,0.02057 0.07526,-0.009 0.111235,0 0.3646666,0.09117 0.4315246,0.24548 0.8342586,0.111235 0.186122,-0.06204 0.180837,-0.334029 0.222469,-0.500555 0.02844,-0.113751 0.111234,-0.216453 0.111234,-0.333704 0,-0.25357 -0.210997,-0.655935 -0.38932,-0.834258 -0.06088,-0.06088 -0.448851,-0.210733 -0.500556,-0.05562 -0.02931,0.08794 0,0.185391 0,0.278086 z"
       id="path14" />
    <path
       style="fill:#44aa00;stroke-width:0.0264583;stroke-miterlimit:1"
       d="m 4.0600587,16.573938 c -0.4603199,1.067373 -0.6713056,2.196365 -0.8342585,3.337035 -0.018539,0.129774 -0.021124,0.262849 -0.055617,0.389321 -0.066528,0.243936 -0.2270025,0.467605 -0.2780864,0.723024 -0.042423,0.212115 0.078802,0.0092 -0.055617,0.278086 -0.029893,0.05979 -0.090097,0.103439 -0.1112345,0.166852 -0.017587,0.05276 0.013488,0.112895 0,0.166852 -0.010054,0.04022 -0.097072,0.111234 -0.055617,0.111234 0.018539,0 -0.018539,-0.05562 0,-0.05562 0.046321,0 0.2030598,0.155206 0.2224688,0.166852 0.050271,0.03016 0.1144154,0.0294 0.1668518,0.05562 0.2405311,0.120265 0.4249137,0.313679 0.6117897,0.500555 0.076354,0.07635 0.7164163,0.729632 0.8342588,0.61179 0.1766771,-0.176677 0.2682419,-0.449466 0.3893206,-0.667407 0.1007967,-0.181434 0.2018855,-0.310054 0.278086,-0.500555 0.1508932,-0.377233 0.2055342,-0.783454 0.3337037,-1.167962 0.1302554,-0.390767 0.2331061,-0.763142 0.278086,-1.167962 0.029119,-0.262072 0.1632614,-0.430576 0.2224691,-0.667407 0.017986,-0.07194 -0.014544,-0.149753 0,-0.222469 0.064722,-0.323611 0.1073846,-0.765235 -0.111235,-1.056728 C 5.6510033,17.24915 5.3308305,17.002866 4.9499347,16.907642 4.8330503,16.878421 4.7860397,16.778854 4.6718484,16.74079 c -0.052763,-0.01759 -0.1112345,0 -0.1668515,0 -0.2368836,0 -0.1573038,0.0057 -0.4449382,-0.166852 z"
       id="path18" />
    <path
       style="fill:#44aa00;stroke-width:0.0264583;stroke-miterlimit:1"
       d="m 6.9251655,17.832893 c 0.3893206,-0.574712 0.7383631,-1.178875 1.1679621,-1.724135 0.061786,-0.07842 0.17825,-0.111234 0.2780861,-0.111234 0.023894,0 0.9006286,0.400073 0.9454932,0.444938 0.083002,0.083 0.2207421,0.177734 0.2780861,0.278086 0.259282,0.453743 0.283816,1.056133 0.389321,1.557283 0.05096,0.242036 0.124472,0.479339 0.166851,0.723024 0.03192,0.18356 0.0152,0.374293 0.05562,0.556172 0.03436,0.154626 0.119605,0.29375 0.166852,0.444938 0.273676,0.875763 -0.01355,0.05705 0.166851,0.778642 0.01377,0.0551 0.292577,0.931002 0.222469,1.00111 -0.03933,0.03933 -0.112314,-0.01091 -0.166851,0 -0.250918,0.05018 -0.448391,0.146676 -0.667407,0.278086 C 9.735455,22.175628 9.2428514,22.646974 8.9830033,22.560358 8.2349307,22.311001 7.9703789,21.202516 7.6481897,20.558138 7.4372379,20.136235 7.5307888,20.432515 7.3701034,20.057582 7.2356453,19.743847 7.3999843,20.04457 7.2588688,19.668262 7.1158584,19.286901 6.9696261,18.900612 6.8695482,18.5003 c -0.018539,-0.07416 -0.061965,-0.146295 -0.055617,-0.222469 0.012695,-0.15235 0.1532332,-0.297943 0.1112346,-0.444938 -0.043216,-0.151257 -0.2313281,-0.214266 -0.3337036,-0.333704 -0.012065,-0.01408 0.01311,-0.04251 0,-0.05562 -0.00556,-0.0056 -0.1928064,0.02595 -0.1112346,-0.05562 0.045996,-0.046 0.3636703,0 0.4449382,0"
       id="path19" />
    <path
       style="fill:#225500;stroke-width:0.0264583;stroke-miterlimit:1"
       d="m 2.5853833,21.79126 c 0,-0.185391 0.073029,-0.385772 0,-0.556173 -0.030984,-0.07229 -0.1291878,0.0978 -0.1668518,0.166852 -0.2409814,0.441799 -0.2780862,0.841644 -0.2780862,1.334814 0,0.11499 -0.036675,0.575115 0.055617,0.667407 0.041455,0.04145 0.1144153,0.0294 0.1668518,0.05562 0.5222145,0.261107 1.0996509,0.234327 1.6685173,0.278086 0.5116975,0.03936 0.1520817,0.06016 0.6117897,0.111235 0.073703,0.0082 0.149058,-0.01049 0.222469,0 0.058036,0.0083 0.1144151,0.0294 0.1668516,0.05562 0.02345,0.01173 0.029399,0.05562 0.055617,0.05562 0.026218,0 0.041074,-0.0338 0.055617,-0.05562 0.1133875,-0.170081 0.087347,-0.309458 0.1112345,-0.500555 0.097526,-0.780211 0.088681,-0.989302 -0.7230242,-1.279197 -0.3251097,-0.116111 -1.2765341,-0.472968 -1.6129,-0.444938 -0.1168464,0.0097 -0.3621411,0.224985 -0.3337034,0.111235 0.041455,-0.165819 0.2595471,-0.222469 0.3893207,-0.333704"
       id="path20" />
    <path
       style="fill:#225500;stroke-width:0.0264583;stroke-miterlimit:1"
       d="m 8.2858116,22.884519 c 0.037078,0.463477 0.072622,0.92708 0.1112345,1.390431 0.00153,0.01848 -0.01311,-0.04251 0,-0.05562 0.01311,-0.01311 0.03803,-0.0059 0.055617,0 0.2424247,0.08081 0.3535325,0.02152 0.6117897,0 0.4299506,-0.03583 0.8085426,0.02823 1.2235792,0.111234 0.142408,0.02848 0.356235,0.03908 0.500555,0.111235 0.01448,0.0072 0.06776,0.09909 0.111235,0.05562 0.01311,-0.01311 0,-0.03708 0,-0.05562 0,-0.297425 0.02875,-0.594329 0.05562,-0.889876 0.02621,-0.28833 0.144196,-0.537603 0.111235,-0.834259 -0.0084,-0.07597 -0.04614,-0.14662 -0.05562,-0.222469 -0.02783,-0.222684 -0.0168,-0.478533 -0.111234,-0.667407 -0.171787,-0.343573 -1.2960606,0.07196 -1.5016656,0.166852 -0.5264227,0.242964 -0.890814,0.336048 -1.1123451,0.889876 z"
       id="path21" />
    <path
       style="fill:#112b00;stroke-width:0.0264583;stroke-miterlimit:1"
       d="M 2.72245,23.708078 C 2.2623724,23.475257 3.1306259,23.560082 3.0005361,23.429992 2.8866667,23.316122 2.7912879,23.542867 2.72245,23.708078 c -0.2276472,0.546353 -0.236613,0.360074 -0.1112345,1.112345 0.035674,0.214042 0.1736758,0.400352 0.222469,0.61179 0.3068096,1.329508 -0.2688189,-0.743889 0.1668516,0.889876 0.085451,0.320442 0.1833761,0.629793 0.2780864,0.945491 0.1463598,0.487868 0.2100569,1.007081 0.3337033,1.501667 0.02318,0.09272 0.1101479,0.724111 0.055617,0.778642 -0.01311,0.0131 -0.042508,-0.0131 -0.055617,0 -0.03417,0.03417 -0.036743,0.129606 -0.1112343,0.166852 -0.090591,0.0453 -0.2887747,-0.01437 -0.3893209,0 -0.4301711,0.06145 -0.8635891,0.229801 -1.2791965,0.333703 -0.066899,0.01672 -0.4802819,0.09096 -0.5005552,0.111233 -0.043477,0.04348 0.048377,0.09676 0.055617,0.111236 0.024873,0.04974 -0.013489,0.112895 0,0.166852 0.017621,0.07049 0.080756,0.21713 0.1112345,0.278085 0.01696,0.03392 0.074486,0.148479 0.1112345,0.166851 0.1368089,0.06841 0.6182089,-0.02291 0.7786414,0 0.2572526,0.03675 0.5117093,0.0907 0.7786413,0.111237 0.2948805,0.02267 0.5949955,-0.02267 0.889876,0 0.5351106,0.04116 1.4997787,0.346911 1.6129,-0.44494 C 5.7215513,30.189287 5.4864055,29.440325 5.3364606,29.10295 5.2925567,29.004168 5.2149091,28.923015 5.1696088,28.824865 4.9240048,28.292722 4.8501181,27.720859 4.7246709,27.156347 4.5958596,26.576698 4.6162304,26.068886 4.6690536,25.48783 c 0.026616,-0.292776 -0.036461,-0.598186 0,-0.889876 0.011827,-0.09461 0.1154774,-0.714538 0.1112346,-0.723024 -0.1886109,-0.377222 -0.7839792,-0.278086 -1.1123451,-0.278086 -0.1483125,0 -0.2977706,0.0184 -0.4449379,0 -0.075848,-0.0095 -0.1478505,-0.0722 -0.2224691,-0.05562 -0.1055262,0.02345 -0.1853907,0.111235 -0.2780861,0.166852"
       id="path22" />
    <path
       style="fill:#112b00;stroke-width:0.0264583;stroke-miterlimit:1"
       d="m 8.5178229,24.471587 c -0.1261549,1.277163 0.041243,2.559058 0,3.837591 -0.058259,1.806027 -0.055617,0.377306 -0.055617,0.889876 0,0.360648 0.07067,0.925843 0,1.279197 -0.028223,0.141115 -0.1069872,0.380825 -0.1668518,0.500554 -0.02669,0.05338 0.017804,0.169056 0,0.22247 -0.00911,0.02733 -0.1095185,0.112948 -0.055617,0.166851 0.1076375,0.107638 0.959506,0.368517 1.112345,0.444937 0.4890696,0.244536 0.2735106,0.208918 0.7786409,0.389321 0.357341,0.127622 0.766728,0.129964 1.112345,0.278085 0.05093,0.02183 0.243918,0.211746 0.333703,0.166852 0.168465,-0.08423 0.367208,-0.207225 0.556173,-0.278085 0.255731,-0.0959 0.570781,-0.212217 0.834258,-0.278085 0.03597,-0.009 0.07807,0.01659 0.111235,0 0.01658,-0.0083 0.01311,-0.04251 0,-0.05562 -0.01311,-0.0131 -0.04251,0.01312 -0.05562,0 -0.02931,-0.02931 -0.02631,-0.08192 -0.05562,-0.111236 -0.07158,-0.07158 -0.310802,-0.187572 -0.38932,-0.222467 -0.485124,-0.215612 -0.822414,-0.3263 -1.279197,-0.611791 -0.135615,-0.08476 -0.329849,-0.162997 -0.444938,-0.278085 -0.0098,-0.0098 0.14862,-0.875337 0.166852,-1.112346 0.03987,-0.518308 0.0232,-1.038656 0.05562,-1.557281 0.0294,-0.470411 0.179986,-0.923124 0.222469,-1.390434 0.07289,-0.801729 0.101458,-1.606167 -0.05562,-2.39154 -0.0115,-0.05749 -0.01416,-0.125397 -0.05562,-0.166852 -0.04348,-0.04348 -0.09675,0.04838 -0.111235,0.05562 -0.01451,0.0073 -0.766615,0.05712 -0.778641,0.05562 -0.4240223,-0.053 -0.7983723,-0.333704 -1.2235791,-0.333704 -0.058626,0 -0.1090237,0.04598 -0.1668518,0.05562 -0.3548139,0.05914 -0.3893209,0.03788 -0.3893209,0.444938 z"
       id="path23" />
    <path
       style="fill:#002255;stroke-width:0.0216498;stroke-miterlimit:1"
       d="m 6.4956081,13.143017 c 0.6174574,0.0203 1.2440444,0.01163 1.8578468,0.04646 0.2003532,0.01137 0.3853042,0.08101 0.5874212,0.08492 0.381504,0.0074 0.808252,-0.129956 1.1598319,-0.07913 0.07513,0.01086 0.100315,0.155195 0.129489,0.216166 0.195275,0.408023 0.07008,0.646777 -0.06223,1.175667 -0.01599,0.06391 -0.01363,0.129814 -0.03835,0.191899 -0.02032,0.05111 -0.1728639,0.285888 -0.2139579,0.314595 -0.08494,0.05934 -0.23253,-0.0089 -0.308993,-0.01999 -0.138527,-0.02002 -0.349165,-0.06287 -0.472938,-0.117733 -0.03405,-0.01509 -0.04871,-0.06481 -0.08003,-0.08561 -0.160218,-0.10613 -0.4121896,-0.122465 -0.6179857,-0.03998 -0.377625,0.151359 -0.7045583,0.49225 -1.0536794,0.736169 -0.1934438,0.135151 -0.9800056,-0.322929 -1.163171,-0.390286 -0.033853,-0.01248 -0.391921,-0.05082 -0.3851329,-0.179077 0.00183,-0.03464 0.047425,-0.05544 0.061131,-0.08988 0.08694,-0.218438 0.1266634,-0.361168 0.2561859,-0.579976 0.084073,-0.142026 0.1940287,-0.260073 0.2750879,-0.404479 0.057396,-0.102242 0.3104708,-0.75483 0.2945344,-0.771876 -0.019887,-0.02127 -0.054339,0.09715 -0.034454,0.118423"
       id="path15" />
    <path
       style="fill:#225500;stroke-width:0.0264583;stroke-miterlimit:1"
       d="M 8.9099387,7.917891 C 9.1625727,7.5032241 9.3452657,7.0328209 9.7998147,6.8055462 9.9362417,6.7373322 10.15044,6.6986667 10.30037,6.6386946 c 0.07061,-0.028242 0.491721,-0.1668518 0.556172,-0.1668518 0.217835,0 0.600702,0.171322 0.778642,0.2780861 0.239463,0.1436783 0.453981,0.2670837 0.667407,0.4449382 0.05135,0.042792 0.125095,0.059038 0.166851,0.1112342 0.03662,0.045779 0.02546,0.1165807 0.05562,0.1668518 0.02698,0.044964 0.08778,0.064334 0.111234,0.1112346 0.03419,0.068369 0.03144,0.1499528 0.05562,0.222469 0.0995,0.2984897 0.130287,0.4799648 0.05562,0.7786413 -0.02256,0.090227 0.06417,0.436387 0,0.5005551 C 12.588695,9.244687 12.33941,8.6869398 12.302591,8.6409152 12.230884,8.5512815 11.943804,8.3054394 11.857653,8.2515946 11.772992,8.1986817 11.664227,8.193273 11.579567,8.1403601 11.082148,7.8294734 11.757747,8.0800343 11.190246,7.917891 10.713562,7.7816957 10.150973,7.85791 9.6885797,7.973508 c -0.02523,0.00631 -0.333703,-0.00535 -0.333703,0 0,0.084175 0.444938,0.1141172 0.444938,0.1112345 0,-0.018539 -0.04251,0.01311 -0.05562,0 -0.01311,-0.01311 0.01311,-0.042508 0,-0.055617 C 9.6306717,7.9156005 9.0044247,7.917891 8.9099387,7.917891"
       id="path4" />
    <path
       style="fill:#2d5016;stroke-width:0.0264583;stroke-miterlimit:1"
       d="m 5.7024629,10.067797 c 0.1374638,0.136372 0.2087891,0.04237 0.3539458,0.07865 0.2715178,0.06788 0.5549929,-0.01485 0.8258741,0.03933 0.1174086,0.02348 0.1890517,0.136382 0.3146187,0.15731 0.077584,0.01293 0.1588365,-0.01543 0.2359639,0 0.028744,0.0057 0.049911,0.03358 0.078654,0.03933 0.2244212,0.04488 0.415547,-0.05194 0.6292374,-0.07865 0.052032,-0.0065 0.1054,0.0074 0.1573094,0 0.080597,0.01682 0.1270023,-0.06705 0.1966367,-0.07865 0.051723,-0.0086 0.1055862,0.0086 0.1573093,0 0.1550858,-0.02585 0.3214418,-0.09712 0.4719278,-0.157309 0.1040797,-0.04163 0.2999941,-0.1280606 0.3539461,-0.2359646 0.034809,-0.069618 -0.058497,-0.013438 0.039327,-0.078654 0.024389,-0.016261 0.050846,-0.030058 0.078655,-0.039327 0.012435,-0.00415 0.039327,0.01311 0.039327,0 0,-0.01311 -0.030058,-0.00927 -0.039327,0 -0.038219,0.038219 -0.01152,0.1109617 -0.039327,0.1573093 -0.019076,0.031794 -0.059578,0.04686 -0.078655,0.078655 -0.065832,0.1097193 -0.08905,0.2401803 -0.1573094,0.3539453 -0.2462762,0.410461 -0.2870268,0.941796 -0.5505825,1.33713 -0.089126,0.133689 -0.00527,0.02109 -0.039327,0.157309 -0.042314,0.169257 -0.2304166,0.337304 -0.2752913,0.471928 -0.00829,0.02487 0.00829,0.05378 0,0.07865 -0.00778,0.02335 -0.099866,0.20879 -0.1179819,0.235964 -0.020569,0.03085 -0.062073,0.04549 -0.078655,0.07865 -0.00586,0.01173 0.00927,0.03006 0,0.03933 -0.023813,0.02381 -0.2073223,0 -0.2359639,0 -0.2330366,0 -0.4369991,-0.03933 -0.6685648,-0.03933 -0.3763735,0 0.087939,-0.01759 -0.1966365,0.03933 -0.2057879,0.04116 -0.039209,-0.01309 -0.1966367,-0.03933 -0.1795905,-0.02993 -0.3370265,0.03933 -0.5112552,0.03933 -0.3037371,0 -0.6334318,0.135548 -0.9045286,0 -0.016582,-0.0083 -0.031036,-0.02275 -0.039327,-0.03933 -0.032372,-0.06474 0.028435,-0.113739 0.039327,-0.157309 0.034995,-0.139981 0.011687,-0.528318 0,-0.668565 C 5.5158903,11.486375 5.3387066,11.159241 5.269862,10.815019 5.238586,10.658637 5.233169,10.496951 5.191207,10.343091 5.175782,10.286531 5.135646,10.239667 5.112552,10.185781 5.034579,10.003843 4.983284,9.7388138 4.9552427,9.5565442 c -0.011959,-0.07774 0.024873,-0.1613455 0,-0.2359639 -0.00927,-0.027809 -0.06864,-0.078655 -0.039327,-0.078655 0.050462,0 0.1572252,0.1670778 0.1966367,0.1966365 0.3899885,0.2924913 -0.077859,-0.065015 0.1966368,0.1179819 0.046276,0.030851 0.073488,0.084612 0.1179819,0.1179822 0.048148,0.036111 0.1450533,0.1401149 0.1966365,0.1573091 0.0453,0.0151 0.1179822,0.019899 0.1179822,0.039327 0,0.066844 -0.026217,0.131091 -0.039327,0.196637 z"
       id="path24" />
    <path
       style="fill:#8dd35f;stroke-width:0.0264583;stroke-miterlimit:1"
       d="M 5.584481,7.5508473 C 5.4588243,7.7079844 5.2979113,7.7840651 5.1912075,7.9441206 c -0.036868,0.055302 -0.052142,0.1573093 -0.039327,0.1573093 0.01311,0 -0.00927,-0.030058 0,-0.039327 0.018539,-0.018539 0.055204,-0.011726 0.078655,0 0.1879894,0.093995 0.6263838,0.066497 0.8258738,0 0.035176,-0.011726 0.043479,-0.06693 0.078655,-0.078655 0.024873,-0.00829 0.053782,0.00829 0.078655,0 0.017587,-0.00586 0.021741,-0.033465 0.039327,-0.039327 0.024873,-0.00829 0.053782,0.00829 0.078655,0 0.045033,-0.01501 0.1151392,-0.05757 0.1573091,-0.078655 0.1636709,-0.081835 -0.042042,0.00271 0.039327,-0.078654 0.1534842,-0.1534843 0.021122,0.0091 0.1179819,-0.039327 0.163671,-0.081836 -0.042042,0.00271 0.039327,-0.078655 0.018539,-0.018539 0.060116,0.018539 0.078655,0 0.032687,-0.032688 -0.0063,-0.0063 -0.039327,-0.039327 -0.015325,-0.015325 0,-0.1333103 0,-0.1573093 0,-0.06971 0.05285,-0.2089195 0.039327,-0.2359641 -0.022262,-0.044525 -0.6147279,-0.066246 -0.6685648,-0.039327 -0.016581,0.00829 -0.022746,0.031036 -0.039327,0.039327 -0.081713,0.040857 -0.1438785,-0.035172 -0.3146184,0.078655 -0.024389,0.016259 -0.062395,0.014938 -0.078655,0.039327 -0.03916,0.058738 -0.1442009,0.2228542 -0.078655,0.1966358 0.1204915,-0.048197 0.1835274,-0.1835274 0.2752913,-0.2752912"
       id="path25" />
    <path
       style="fill:#8dd35f;stroke-width:0.0264583;stroke-miterlimit:1"
       d="M 2.0843485,9.2812498 C 2.0974575,9.2025953 2.0964254,9.1202247 2.1236758,9.045286 2.2026037,8.8282342 2.3739746,8.623343 2.4776218,8.4160486 2.5821417,8.2070087 2.6749901,7.9919996 2.7922405,7.7868115 3.0367755,7.4200085 2.7869488,7.8420152 2.870895,7.5901747 2.9002079,7.5022362 3.0072065,7.4639177 3.0675318,7.393538 3.4070581,6.997424 3.6589557,6.7737542 4.1686969,6.6463187 c 0.039433,-0.00986 0.3251491,0.01053 0.3539461,0.039327 0.015322,0.015322 0,0.13331 0,0.1573093 0,0.026218 0.018539,0.060116 0,0.078655 -0.00927,0.00927 -0.030058,-0.00927 -0.039327,0 C 4.463652,6.941274 4.463652,6.980601 4.443989,7.000265 4.413635,7.030619 4.249402,7.090662 4.2080251,7.1182469 c -0.06066,0.04044 -0.097766,0.088211 -0.1573093,0.117982 -0.1151356,0.057568 -0.1979811,0.2169726 -0.3146187,0.2752912 -0.037078,0.018539 -0.080904,0.020788 -0.117982,0.039327 -0.053452,0.026726 -0.1038571,0.091256 -0.1573093,0.117982 -0.056373,0.028187 -0.13881,0.035285 -0.1966365,0.078655 C 3.1760916,7.8135418 3.114213,7.9146412 3.0282044,7.983448 2.6146527,8.3142893 2.2499445,8.7844618 2.0843485,9.2812498 Z"
       id="path27" />
    <path
       style="fill:#8dd35f;stroke-width:0.0264583;stroke-miterlimit:1"
       d="m 2.0843485,30.282044 c 0.00179,0.0036 0.064127,0.169709 0.117982,0.196638 0.056516,0.02826 0.3206228,0.0067 0.3539459,0 0.025212,-0.0051 0.2166082,-0.103312 0.2752915,-0.117983 0.06169,-0.01543 0.1349465,0.01543 0.1966365,0 0.028438,-0.0071 0.050217,-0.03222 0.078655,-0.03933 0.090258,-0.02257 0.3674713,-0.01352 0.4326006,-0.07865 0.00927,-0.0093 -0.00586,-0.0276 0,-0.03933 0.089993,-0.179985 -0.016301,0.166884 0.078654,-0.11798 0.080281,-0.240842 -0.4515413,-0.190323 -0.5505825,-0.157311 -0.089815,0.02994 -0.1835185,0.05571 -0.2752913,0.07866 -0.037014,0.0093 -0.080968,-0.0093 -0.117982,0 -0.06857,0.01714 -0.1280665,0.06151 -0.1966367,0.07866 -0.1967285,0.04918 -0.2025424,0.05359 -0.3932733,0.196636 z"
       id="path28" />
    <path
       style="fill:#8dd35f;stroke-width:0.0264583;stroke-miterlimit:1"
       d="m 2.6349311,23.085143 c -0.025,-0.0625 -0.117982,-0.269273 -0.117982,-0.353946 0,-0.02931 0.035182,-0.04964 0.039327,-0.07866 0.01861,-0.13027 -0.036691,-0.433919 0.1179821,-0.511255 0.02345,-0.01173 0.053782,0.0083 0.078655,0 0.1643345,-0.05478 0.3348289,-0.03933 0.5112554,-0.03933 0.035194,0 0.1102503,0.03933 0.117982,0.03933 0.01311,0 0.01311,-0.03933 0,-0.03933 -0.01311,0 0.00586,0.0276 0,0.03933 -0.01311,0.02622 -0.026218,0.05244 -0.039327,0.07865 -0.036042,0.07208 -0.09248,0.159457 -0.1179819,0.235965 -0.00829,0.02487 0.00829,0.05378 0,0.07865 -0.026218,0.07866 -0.1704184,0.117982 -0.1966367,0.196637 -0.00829,0.02487 0.013488,0.05617 0,0.07865 -0.047691,0.07949 -0.1137272,0.155182 -0.1966365,0.196637 -0.063142,0.03157 -0.1310913,0.05244 -0.1966368,0.07865 z"
       id="path29" />
    <path
       style="fill:#0066ff;stroke-width:0.0264583;stroke-miterlimit:1"
       d="m 6.7249735,14.472458 c 0.073205,-0.205178 0.1098061,-0.41625 0.1966365,-0.58991 0.011726,-0.02345 -0.018539,-0.06012 0,-0.07865 0.00927,-0.0093 0.030058,0.0093 0.039327,0 0.024508,-0.02451 0.035542,-0.09548 0.1179819,-0.15731 0.02345,-0.01759 0.057927,-0.0186 0.078655,-0.03933 0.020728,-0.02073 0.023066,-0.05426 0.039327,-0.07865 0.038798,-0.0582 0.1404951,-0.08991 0.1966365,-0.117982 0.02345,-0.01173 0.053219,0.0064 0.078655,0 0.1071981,-0.0268 0.2064258,-0.05702 0.3146187,-0.07865 0.151362,-0.03027 0.2899619,0.01555 0.4326006,0.03933 0.1095304,0.01826 0.2427251,0 0.3539458,0 0.2258997,0 0.501694,-0.103099 0.7078919,0 0.068577,0.03429 0.1669966,0.0097 0.2359642,0.07865 0.020727,0.02073 0.0186,0.05793 0.039327,0.07865 0.065328,0.06533 0.077897,0.03781 0.1179822,0.117981 0.023971,0.04794 -0.2620629,0.187878 -0.3146187,0.196637 -0.301173,0.0502 -0.6000154,0.113808 -0.9045286,0.15731 -0.1323758,0.01891 -0.347468,-0.0022 -0.471928,0.03933 -0.099115,0.03304 -0.1763522,0.01459 -0.2752913,0.03933 -0.169804,0.04245 -0.4353989,0.158709 -0.58991,0.235964 -0.095595,0.0478 -0.151915,0.01696 -0.1966367,0.03933 -0.068369,0.03418 -0.2506869,0.172033 -0.1966365,0.117983 0.066844,-0.06684 0.1573093,-0.104873 0.2359639,-0.15731"
       id="path30" />
    <path
       style="fill:#447821;stroke-width:0.0264583;stroke-miterlimit:1"
       d="M 6.618452,6.618452 C 6.4935057,6.2762563 6.6124433,5.908981 6.5628347,5.5617244 6.5545427,5.5036878 6.5168554,5.4527007 6.5072175,5.3948726 c -0.018288,-0.1097211 0.015732,-0.2235869 0,-0.3337033 C 6.452118,4.6754724 6.3007102,3.8849781 6.3959829,3.5038863 6.4023409,3.4784519 6.4452415,3.4737045 6.4516002,3.448269 6.4914747,3.2887708 6.4382361,3.196912 6.5072175,3.0589484 6.542393,2.9885976 6.618452,2.9477139 6.6740693,2.8920966 6.7409609,2.8252049 6.8621343,2.6590209 6.9521553,2.6140105 7.1506248,2.5147757 7.35943,2.4880617 7.563945,2.4471587 7.8443179,2.3910842 8.1271397,2.2560094 8.3982038,2.3915415 c 0.063191,0.031595 0.1429922,-0.01193 0.2780863,0.055617 0.049745,0.024873 0.1140886,-0.017588 0.1668516,0 0.133863,0.044621 0.3662492,0.176326 0.4449381,0.3337034 0.1128239,0.225648 0.21361,0.6319716 0.2780861,0.889876 0.069794,0.2791767 -0.069794,0.6106991 0,0.8898758 0.010054,0.040217 0.055617,0.06978 0.055617,0.1112345 0,0.222931 -0.055617,-4.498e-4 -0.055617,0.2224691 0,0.217266 -0.016581,0.00587 0.055617,0.222469 0.017682,0.053049 0.0186,0.2779006 0,0.3337034 -0.00829,0.024873 -0.047326,0.030744 -0.055617,0.055617 -0.036866,0.110599 0.051696,0.2859278 0,0.3893206 -0.011726,0.02345 -0.047326,0.030745 -0.055617,0.055617 -0.02798,0.08394 0,0.2419297 0,0.3337036 0,0.037078 -0.037078,0.1112343 0,0.1112343 0.061182,0 0.01351,-0.069127 -0.055617,0 -0.026217,0.026218 0.016581,0.078071 0,0.1112346 -0.127269,0.2545384 0.023053,-0.2360071 -0.1112345,0.1668518 -0.034246,0.1027369 0.084867,0.026368 -0.055617,0.1668518 -0.029313,0.029313 -0.081922,0.026305 -0.1112345,0.055617 -0.1814288,0.1814285 0.070194,0.04104 -0.1112346,0.2224688 C 8.937713,7.2469049 8.6884816,7.4486467 8.5094383,7.508328 8.4311793,7.534413 8.4618733,7.484545 8.3982038,7.452711 8.3100058,7.408612 8.1588466,7.48416 8.0645004,7.452711 7.8312012,7.3749444 7.5987229,7.1491389 7.3414762,7.0633899 7.1006747,6.9831227 7.3619179,7.1697132 7.1190071,7.0077726 6.909024,6.8677839 6.8622729,6.7403625 6.618452,6.618452 Z"
       id="path1" />
    <path
       style="fill:#2b0000;stroke-width:0.0264583;stroke-miterlimit:1"
       d="m 6.8965383,3.6707381 c 0,0.1297736 0,0.259547 0,0.3893206 0,0.3882208 -0.077489,0.3227676 0.1668516,0.4449382 0.070351,0.035175 0.103928,0.1196588 0.1668518,0.1668515 0.033164,0.024873 0.081922,0.026305 0.1112345,0.055617 0.029313,0.029313 0.030744,0.078071 0.055617,0.1112345 0.077042,0.1027232 0.2069137,0.1713275 0.2780861,0.2780863 0.1439783,0.2159675 0.2272164,0.454433 0.3337036,0.6674067 0.018804,0.03761 0.08973,0.3337036 0.1112345,0.3337036 0.037078,0 0,-0.074156 0,-0.1112345 0,-0.085009 0.055617,-0.1374598 0.055617,-0.2224691 0,-0.2223481 0.094649,-0.5312944 0.2224691,-0.7230239 C 8.6234441,4.723308 9.176845,4.4401332 9.176845,4.0044411 c 0,-0.1853906 0,-0.3707815 0,-0.5561724 0,-0.074156 0,-0.1483124 0,-0.2224688 0,-0.018539 0.018539,-0.055617 0,-0.055617 -0.115733,0 -0.022379,0.077996 -0.055617,0.1112345 -0.01311,0.01311 -0.042508,-0.01311 -0.055617,0 -0.01311,0.01311 0.00829,0.039035 0,0.055617 C 8.9968998,3.4744564 8.7964853,3.590608 8.6762901,3.6707381 8.5553692,3.7513519 8.4146569,3.7500507 8.2869692,3.7819726 8.1863053,3.7484505 8.1835309,3.8720693 8.1201177,3.8932072 c -0.052531,0.01751 -0.3731675,0.091502 -0.4449381,0.055617 -0.02345,-0.011724 -0.030744,-0.047326 -0.055617,-0.055617 -0.073918,-0.024641 -0.2074693,0.035308 -0.2780861,0 C 7.186301,3.8156194 7.0948615,3.7500673 6.8965383,3.6707381 Z"
       id="path16" />
    <path
       style="fill:#8dd35f;stroke-width:0.0264583;stroke-miterlimit:1"
       d="m 7.0395922,3.1068592 c 0.2246593,0.015023 0.5080582,0.00639 0.5899099,-0.1573094 0.024059,-0.048115 0.079662,-0.049915 0.117982,-0.078655 0.044494,-0.03337 0.064025,-0.1044927 0.1179819,-0.1179819 0.038153,-0.00954 0.079829,0.00954 0.117982,0 0.017986,-0.0045 0.021741,-0.033465 0.039327,-0.039327 0.1105609,-0.036854 0.310983,-0.078655 0.4326006,-0.078655 0.026011,0 0.2752913,-0.00358 0.2752913,-0.039327 0,-0.020194 -0.081889,-0.027296 -0.117982,-0.039327 C 8.5034132,2.5198525 8.4484164,2.4359746 8.3373941,2.3989671 c -0.073685,-0.024562 -0.1324587,0.017935 -0.1966368,0.039327 -0.067459,0.022486 -0.1730134,-0.031475 -0.2359639,0 -0.016581,0.00829 -0.021741,0.033465 -0.039327,0.039327 -0.058991,0.019664 -0.1376457,-0.019664 -0.1966367,0 -0.1049189,0.034973 -0.2247165,0.073031 -0.3146187,0.117982 -0.1636707,0.081836 0.042043,-0.00271 -0.039327,0.078655 -0.08137,0.08137 0.00318,-0.1243436 -0.078655,0.039327 -0.00586,0.011726 0.00927,0.030058 0,0.039327 -0.08137,0.08137 0.00318,-0.1243436 -0.078655,0.039327 -0.00586,0.011724 0.00927,0.030058 0,0.039327 -0.00462,0.00462 -0.078225,0.038038 -0.078655,0.039327 -0.025215,0.075648 -0.026217,0.1573094 -0.039327,0.2359642 z"
       id="path26" />
  </g>
</svg>
