<?xml version="1.0" encoding="UTF-8" standalone="no"?>
<!-- Created with Inkscape (http://www.inkscape.org/) -->

<svg
   width="32"
   height="64"
   viewBox="0 0 8.4666665 16.933333"
   version="1.1"
   id="svg1"
   inkscape:version="1.3.2 (091e20e, 2023-11-25)"
   sodipodi:docname="lady1.svg"
   inkscape:export-filename="lady1.png"
   inkscape:export-xdpi="96"
   inkscape:export-ydpi="96"
   xmlns:inkscape="http://www.inkscape.org/namespaces/inkscape"
   xmlns:sodipodi="http://sodipodi.sourceforge.net/DTD/sodipodi-0.dtd"
   xmlns="http://www.w3.org/2000/svg"
   xmlns:svg="http://www.w3.org/2000/svg">
  <sodipodi:namedview
     id="namedview1"
     pagecolor="#ffffff"
     bordercolor="#000000"
     borderopacity="0.25"
     inkscape:showpageshadow="2"
     inkscape:pageopacity="0.0"
     inkscape:pagecheckerboard="0"
     inkscape:deskcolor="#d1d1d1"
     inkscape:document-units="mm"
     inkscape:zoom="6.7277216"
     inkscape:cx="26.532013"
     inkscape:cy="20.066229"
     inkscape:window-width="1920"
     inkscape:window-height="971"
     inkscape:window-x="1440"
     inkscape:window-y="716"
     inkscape:window-maximized="0"
     inkscape:current-layer="layer1" />
  <defs
     id="defs1" />
  <g
     inkscape:label="Layer 1"
     inkscape:groupmode="layer"
     id="layer1">
    <path
       style="fill:#00ffff;stroke-width:0.0648451"
       d="m 2.4258245,3.2342486 c 0,0 0.1084524,-1.3672177 0.1897918,-1.4871491 C 2.6969555,1.6271681 4.5948744,0.23596395 4.5948744,0.23596395 L 6.6554721,1.1714289 6.7096983,3.2822212 5.4353814,4.4575489 3.9441595,4.6014664 Z"
       id="path10" />
    <path
       style="fill:#550000;stroke-width:0.0932413"
       d="M 0.47177662,10.684544 C 0.43419878,10.541413 0.73482151,5.5676023 0.73482151,5.5676023 L 2.9519141,4.9592944 4.1544053,3.3490683 5.0938512,3.384851 6.296342,5.0308602 7.4988331,5.6749507 7.9121894,11.435982 8.0249229,15.47944 3.928938,16.588707 0.50935445,13.046208 Z"
       id="path7" />
    <path
       style="fill:#1a1a1a;stroke-width:0.0932413"
       d="M 0.50935445,10.89924 C 0.54693231,10.434063 1.0730221,6.3190412 1.0730221,6.3190412 l 1.9540478,-0.3936109 0.4885119,0.572525 c 0,0 0.3006228,7.1207787 0.3382007,6.8702987 0.037578,-0.250479 1.653425,-7.0492128 1.653425,-7.0492128 L 6.8975876,5.4244711 7.6491446,8.573358 7.4612552,11.14972 3.7786267,13.43982 Z"
       id="path1" />
    <path
       style="fill:#800000;stroke-width:0.0932413"
       d="M 4.3047166,6.4621724 3.2901148,5.0666429 4.2671387,3.7784619 4.4926057,5.0308602 4.8308064,3.9215931 5.6950968,4.887729 Z"
       id="path2" />
    <path
       style="fill:#a02c2c;stroke-width:0.0932413"
       d="M 2.4634023,7.0346973 0.84755504,5.2097742 3.4780041,2.454498 3.7786268,3.1343714 2.1252017,5.0666431 2.5385579,6.2832585 Z"
       id="path3" />
    <path
       style="fill:#a02c2c;stroke-width:0.0932413"
       d="M 6.2587644,2.9554573 6.0708751,3.8500276 7.1230546,5.2813398 6.1460307,6.3190412 c 0,0 -0.2630449,1.6102263 -0.037578,1.3239639 C 6.33392,7.3567425 8.2128119,5.245557 8.0625008,5.209774 7.9121894,5.1739914 6.2587644,2.9554573 6.2587644,2.9554573 Z"
       id="path4" />
    <path
       style="fill:#ff5555;stroke-width:0.0932413"
       d="M 2.5761358,12.366335 0.96028856,13.797647 2.5761358,15.765702 1.7494233,16.696055 2.7640251,16.73184 3.5531597,15.586791 2.5009801,14.083913 3.8162046,12.795732 2.7640251,12.294772 Z"
       id="path5" />
    <path
       style="fill:#ff2a2a;stroke-width:0.0932413"
       d="M 4.7932285,12.473684 6.108453,11.758027 7.6115666,14.191259 6.3714979,15.980398 7.4236773,16.910752 6.108453,16.803404 4.9059619,15.765702 6.5969648,13.904996 4.7180729,12.223205 Z"
       id="path6" />
    <path
       style="fill:#ffb380;stroke-width:0.0932413"
       d="M 3.2901148,2.7407605 3.4780039,2.1324527 3.3276927,0.98740297 4.3422943,2.9554573 3.703471,3.1701542 Z"
       id="path8" />
    <path
       style="fill:#ffb380;stroke-width:0.0932413"
       d="m 5.9581416,3.5995479 c 0,0 -0.4133562,-0.3936109 -0.3006228,-0.6083078 C 5.7702524,2.7765433 6.2211865,0.95162015 6.2211865,0.95162015 L 6.33392,2.4902809 6.5218093,3.205937 6.108453,3.8858103 Z"
       id="path9" />
  </g>
</svg>
