<?xml version="1.0" encoding="UTF-8" standalone="no"?>
<!-- Created with Inkscape (http://www.inkscape.org/) -->

<svg
   width="32"
   height="64"
   viewBox="0 0 8.4666665 16.933333"
   version="1.1"
   id="svg1"
   inkscape:version="1.3.2 (091e20e, 2023-11-25)"
   sodipodi:docname="lady0.svg"
   inkscape:export-filename="lady0.png"
   inkscape:export-xdpi="96"
   inkscape:export-ydpi="96"
   xmlns:inkscape="http://www.inkscape.org/namespaces/inkscape"
   xmlns:sodipodi="http://sodipodi.sourceforge.net/DTD/sodipodi-0.dtd"
   xmlns="http://www.w3.org/2000/svg"
   xmlns:svg="http://www.w3.org/2000/svg">
  <sodipodi:namedview
     id="namedview1"
     pagecolor="#ffffff"
     bordercolor="#000000"
     borderopacity="0.25"
     inkscape:showpageshadow="2"
     inkscape:pageopacity="0.0"
     inkscape:pagecheckerboard="0"
     inkscape:deskcolor="#d1d1d1"
     inkscape:document-units="mm"
     inkscape:zoom="6.7277216"
     inkscape:cx="-5.7225911"
     inkscape:cy="34.038269"
     inkscape:window-width="1920"
     inkscape:window-height="999"
     inkscape:window-x="1440"
     inkscape:window-y="716"
     inkscape:window-maximized="0"
     inkscape:current-layer="layer1" />
  <defs
     id="defs1" />
  <g
     inkscape:label="Layer 1"
     inkscape:groupmode="layer"
     id="layer1">
    <path
       style="fill:#2b0000;stroke-width:0.1"
       d="M 3.5787869,1.2191472 2.988877,2.870895 3.932733,3.8147511 5.1518803,2.6742585 4.6012975,0.98318324 Z"
       id="path12" />
    <path
       style="fill:#a02c2c;stroke-width:0.1"
       d="M 4.0900424,0.47192797 3.2641685,1.1798199 c 0,0 -0.4484814,1.8614702 -0.291172,1.7041608 0.1573093,-0.1573093 0.4532524,-1.3617336 0.6105618,-1.3224062 0.1573093,0.039327 0.5180029,0.2081553 0.5180029,0.2081553 0,0 0.4882178,-0.3444035 0.4882178,-0.1870942 0,0.1573093 0.5621013,2.3500974 0.5621013,2.0354787 0,-0.3146187 -0.2752912,-2.7135857 -0.2752912,-2.7135857 z"
       id="path1"
       sodipodi:nodetypes="ccsscsscc" />
    <path
       style="fill:#a02c2c;stroke-width:0.1"
       d="M 2.870895,2.5956038 C 2.6349311,2.7135857 1.2584746,3.3034956 1.2584746,3.3034956 L 0.82587393,4.7192797 H 2.4382945 L 2.7135857,8.5733579 1.7304025,14.551112 c 0,0 1.9270392,1.809057 1.9270392,1.651748 0,-0.157309 0.3932733,-11.4835803 0.3932733,-11.4835803 L 3.8540785,3.5394598 Z"
       id="path2" />
    <path
       style="fill:#aa0000;stroke-width:0.1"
       d="M 4.0900424,3.3821505 C 4.2866791,3.2248411 4.9159162,2.4776218 5.0732255,2.5169491 5.2305349,2.5562764 6.5283368,3.0675318 6.5283368,3.0675318 L 7.2362287,4.3653336 5.4271716,4.7979343 v 3.7360962 l 0.7865465,5.3878445 c 0,0 -2.5956038,2.35964 -2.5956038,2.163003 0,-0.196637 0.078655,-6.567664 0.078655,-6.567664 V 3.6574417 Z"
       id="path3" />
    <path
       style="fill:#550000;stroke-width:0.1"
       d="m 1.4944385,4.7192797 c 0,0 -0.4326006,4.6012975 -0.3146186,4.4439882 C 1.2978019,9.0059586 2.2023305,7.6295021 2.2023305,7.6295021 L 2.7922405,5.1518803 2.5562764,4.0900424 Z"
       id="path4" />
    <path
       style="fill:#550000;stroke-width:0.1"
       d="m 5.3838917,5.3966382 c 0,0 0.2641819,1.9560055 0.4608184,1.9560055 0.1966367,0 1.2898264,1.2576561 1.2111719,0.8250555 C 6.9772272,7.7450986 6.6904174,4.2950637 6.6904174,4.2950637 l -0.733315,0.3463798 -0.5990432,0.011519 z"
       id="path5"
       sodipodi:nodetypes="csscccc" />
    <path
       style="fill:#550000;stroke-width:0.1"
       d="m 2.5956038,15.141022 -0.117982,0.786547 c 0,0 -1.4157839,0.707892 -1.1798199,0.668564 0.235964,-0.03933 0.8652012,0.03933 0.8652012,0.03933 0,0 1.4157838,0.07865 1.3764567,-0.07865 -0.039327,-0.157309 -0.1573093,-1.258475 -0.1573093,-1.258475 l -0.58991,-0.314618 z"
       id="path6" />
    <path
       style="fill:#550000;stroke-width:0.1"
       d="m 4.1293698,15.141022 c 0.1966364,-0.157309 1.1798199,-0.747219 1.1798199,-0.747219 l -0.2359642,1.258474 0.1573094,0.393274 1.061838,0.314618 -1.3764567,0.196637"
       id="path7" />
    <path
       style="fill:#c83737;stroke-width:0.1"
       d="M 1.5337659,8.455376 2.1138439,7.7278205 3.8245827,8.0424389 3.9327332,8.6126853 Z"
       id="path8"
       sodipodi:nodetypes="ccccc" />
    <path
       style="fill:#c83737;stroke-width:0.1"
       d="M 4.7586069,7.9047934 5.8990994,7.2362287 6.8429554,8.1014299 4.4144928,8.4848715 Z"
       id="path9"
       sodipodi:nodetypes="ccccc" />
    <path
       style="fill:#deaa87;stroke-width:0.1"
       d="m 3.7360963,8.0227754 0.078655,-0.5505826 0.4121533,-0.788523 0.1384292,1.8503607 -0.471928,0.078655 z"
       id="path11"
       sodipodi:nodetypes="cccccc" />
    <path
       style="fill:#550000;stroke-width:0.1"
       d="M 3.6290252,2.3359242 3.712451,2.8642881 3.9627286,3.0311397 4.3242407,2.7530536 4.3381445,2.5583932 V 2.2107854 L 4.1295804,2.4054458 3.9905373,2.5444889 3.9627286,2.2664027 3.8375899,2.2942113 3.5595036,1.8631777 Z"
       id="path13" />
    <path
       style="fill:#ffccaa;stroke-width:0.1"
       d="M 4.7979343,7.8261386 4.1800109,6.5883159 4.3236207,7.9371684 4.0900424,7.7081567 4.2080243,8.1800847 4.4144929,8.5340305 Z"
       id="path10"
       sodipodi:nodetypes="ccccccc" />
    <path
       style="fill:#1a1a1a;stroke-width:0.1"
       d="m 1.6268044,4.6857528 c 0,0 -0.5422681,4.3242407 -0.4727466,4.1851976 0.069522,-0.139043 0.403225,-1.3487183 0.403225,-1.3487183 0,0 0.6535026,-0.6256938 0.6117897,-0.7091198 C 2.1273596,6.7296865 2.3359242,4.2130061 2.280307,4.254719 2.2246897,4.2964322 1.6268044,4.6857528 1.6268044,4.6857528 Z"
       id="path14" />
    <path
       style="fill:#1a1a1a;stroke-width:0.1"
       d="M 2.6835319,4.199102 2.9894268,5.6312458 2.8503837,6.1457053 c 0,0 0.3337034,1.8909864 0.3058949,1.6407088 C 3.1284701,7.5361365 3.1145657,6.1874182 3.1145657,6.1874182 L 3.2814175,5.1028822 3.2953213,4.2269105 3.8932069,4.3520494 2.9477136,3.8932072 2.8503835,3.5873123 2.4471584,3.9349201 Z"
       id="path15" />
    <path
       style="fill:#1a1a1a;stroke-width:0.1"
       d="m 5.5895329,4.8108917 c -0.013904,0.083426 0.3337036,2.2664026 0.3337036,2.2664026 0,0 0.9872059,0.9037801 0.9454931,0.8203543 C 6.8270167,7.8142229 6.1178968,6.9799641 6.0900881,6.8687296 6.0622796,6.757495 6.1039919,5.672959 6.1039919,5.672959 L 5.9093316,4.9638391 6.2986522,4.4910925 5.5339151,4.6857528 Z"
       id="path16" />
    <path
       style="fill:#1a1a1a;stroke-width:0.1"
       d="M 4.8804131,2.8364793 C 4.7969873,2.906001 4.0600587,3.6429293 4.1712933,3.6151208 4.2825278,3.5873123 4.9916476,3.0311397 5.0472649,3.0172355 5.1028822,3.0033317 5.8954278,2.8781922 5.7702891,2.8781922 c -0.1251389,0 -0.7369286,-0.3337033 -0.7369286,-0.3337033 z"
       id="path17" />
    <path
       style="fill:#1a1a1a;stroke-width:0.1"
       d="M 2.766958,2.7808621 C 2.6974363,2.8086708 1.4877613,3.309226 1.5711871,3.309226 c 0.083426,0 1.1957709,-0.1807559 1.1957709,-0.1807559 L 3.7680683,3.5595036 2.8781922,2.8781922 Z"
       id="path18" />
    <path
       style="fill:#1a1a1a;stroke-width:0.1"
       d="M 3.8540785,9.6941869 C 3.8344146,9.8514962 3.401814,14.649431 3.401814,14.649431 c 0,0 0.2949551,1.39612 0.2752913,1.219147 C 3.6574415,15.691605 3.932733,14.492121 3.932733,14.492121 L 4.2276879,10.520061 4.2866791,9.3795682 3.401814,9.1042769 Z"
       id="path19" />
    <path
       style="fill:#1a1a1a;stroke-width:0.1"
       d="m 2.0646848,14.570776 0.4326007,0.58991 c 0,0 0.1179819,-0.412937 0.2163002,-0.334283 0.098318,0.07865 0.6882283,0.393274 0.6292373,0.314619 -0.058991,-0.07865 -1.2584745,-0.96352 -1.2584745,-0.96352 l -0.176973,0.353947 z"
       id="path20" />
    <path
       style="fill:#1a1a1a;stroke-width:0.1"
       d="M 1.7304025,8.4160486 C 1.6517479,8.4750396 1.5141022,8.7503308 1.5141022,8.7503308 L 3.9130694,8.5340305 2.0450212,8.2784031 l 0.078655,-0.58991 z"
       id="path21" />
    <path
       style="fill:#1a1a1a;stroke-width:0.1"
       d="m 4.9552436,7.8064751 c 0,0 -0.530919,0.7472193 -0.4129371,0.7275554 0.117982,-0.019664 2.3596399,-0.4326006 2.3596399,-0.4326006 l -1.8680483,0.019664 z"
       id="path22" />
    <path
       style="fill:#1a1a1a;stroke-width:0.1"
       d="M 5.1518803,4.7782707 C 5.053562,4.7586069 3.7950872,5.0142346 3.8934056,4.994571 3.991724,4.9749072 5.4075078,5.4075078 5.4075078,5.4075078 Z"
       id="path23" />
  </g>
</svg>
